<?xml version="1.0" standalone="no"?>
<!DOCTYPE svg PUBLIC "-//W3C//DTD SVG 20010904//EN"
 "http://www.w3.org/TR/2001/REC-SVG-20010904/DTD/svg10.dtd">
<svg version="1.0" xmlns="http://www.w3.org/2000/svg"
 width="1296.000000pt" height="1296.000000pt" viewBox="0 0 1296.000000 1296.000000"
 preserveAspectRatio="xMidYMid meet">
<metadata>
Created by potrace 1.11, written by Peter Selinger 2001-2013
</metadata>
<g transform="translate(0.000000,1296.000000) scale(0.100000,-0.100000)"
fill="#000000" stroke="none">
<path d="M1813 9093 l3 -3598 26 -140 c161 -849 574 -1740 1192 -2572 207
-279 404 -509 666 -777 494 -505 964 -866 1601 -1229 83 -47 402 -204 524
-257 209 -91 654 -250 700 -250 26 0 298 91 470 158 1645 634 3111 2092 3855
3832 171 400 294 820 357 1220 17 109 18 292 18 3655 l0 3540 -40 7 c-22 4
-2140 7 -4708 7 l-4667 1 3 -3597z m1747 2881 c47 -91 88 -167 91 -169 3 -2
40 23 82 56 56 44 77 55 77 43 0 -10 -9 -105 -21 -212 -11 -107 -17 -197 -14
-201 4 -3 16 5 27 19 25 32 118 130 122 130 2 0 14 -28 26 -62 13 -35 26 -66
29 -70 3 -3 64 5 135 18 70 14 130 24 131 22 2 -2 -12 -64 -30 -138 -18 -74
-31 -138 -29 -141 2 -3 28 -12 59 -19 30 -7 55 -16 55 -19 0 -3 -91 -94 -202
-201 l-202 -196 48 -73 47 -74 -58 6 c-139 15 -344 29 -348 25 -11 -11 -25
-119 -28 -208 -3 -123 7 -146 86 -196 l61 -39 -117 -3 c-64 -1 -170 -1 -234 0
l-117 3 54 35 c82 54 91 71 93 181 2 98 -8 195 -22 218 -9 14 -122 8 -354 -16
l-58 -6 47 74 48 73 -204 197 c-113 109 -202 199 -200 201 3 2 31 12 63 22 31
9 57 18 57 19 -1 1 -16 63 -34 137 -18 74 -30 136 -27 137 3 2 62 -8 131 -21
69 -14 128 -21 131 -18 3 4 16 36 29 71 l24 65 73 -79 c40 -43 75 -76 77 -74
3 2 -5 100 -18 217 -12 116 -20 212 -17 212 2 0 34 -24 70 -53 36 -29 71 -56
78 -60 7 -5 41 51 100 163 48 93 90 170 93 170 3 0 43 -75 90 -166z m6050 -7
c40 -78 77 -148 82 -154 8 -9 30 3 86 47 42 32 78 57 80 55 2 -2 -6 -94 -18
-204 -12 -111 -20 -206 -18 -212 2 -6 36 23 76 66 l72 77 15 -36 c8 -20 22
-52 30 -72 11 -26 19 -34 32 -30 41 12 236 46 240 42 3 -3 -9 -64 -26 -136
-17 -72 -29 -135 -27 -139 3 -4 30 -14 61 -21 30 -7 55 -16 55 -19 0 -3 -92
-93 -204 -200 l-204 -193 44 -71 c24 -39 42 -72 40 -74 -1 -2 -87 4 -189 13
-103 9 -193 14 -201 11 -31 -12 -48 -253 -23 -327 11 -33 27 -46 123 -107 15
-9 -30 -12 -213 -12 -128 -1 -233 3 -233 7 0 5 18 17 39 27 22 9 52 31 68 47
25 26 28 38 31 108 4 85 -12 238 -27 253 -6 6 -87 3 -201 -7 -106 -9 -194 -15
-196 -13 -2 2 7 19 19 38 13 19 33 50 45 70 l22 36 -205 197 c-223 214 -216
201 -127 221 18 4 35 12 38 19 2 6 -9 70 -26 140 -17 71 -29 131 -26 133 3 4
131 -18 242 -42 18 -4 25 4 44 58 12 34 25 66 30 70 4 4 37 -26 74 -68 37 -41
71 -73 75 -71 3 2 -3 98 -15 213 -12 114 -20 209 -19 210 1 2 37 -24 80 -57
l78 -61 29 53 c17 29 57 107 90 173 53 106 62 117 73 101 7 -9 46 -81 85 -159z
m-3222 114 l52 -23 0 -704 0 -704 -83 0 c-100 0 -189 -22 -442 -111 l-180 -63
-262 -4 -263 -3 0 755 0 756 203 0 c250 1 321 10 439 55 157 61 227 75 363 72
100 -2 129 -7 173 -26z m652 5 c47 -13 132 -41 190 -62 l105 -38 253 -4 252
-4 0 -754 0 -754 -247 0 -248 0 -130 46 c-379 134 -391 137 -507 138 l-108 1
0 690 c0 380 4 695 8 701 42 63 270 84 432 40z m3938 -4296 c3 -2334 5 -2216
-58 -2530 -33 -164 -77 -321 -149 -531 -78 -228 -99 -284 -174 -454 -549
-1254 -1497 -2384 -2596 -3095 -447 -289 -877 -498 -1357 -660 l-141 -48 -174
63 c-663 238 -1144 495 -1684 900 -415 312 -808 686 -1161 1105 -769 915
-1329 2073 -1449 2995 -13 104 -15 386 -15 2245 0 1170 3 2130 7 2133 3 4
2018 6 4477 5 l4471 -3 3 -2125z"/>
<path d="M2722 9673 c-20 -38 -37 -266 -37 -488 0 -225 1 -231 26 -291 73
-174 264 -385 584 -643 127 -103 341 -264 464 -349 41 -29 69 -52 62 -52 -24
0 -328 80 -411 108 -153 53 -293 112 -429 183 -216 112 -322 196 -403 320 -28
43 -56 79 -61 79 -13 0 -1 -275 19 -428 18 -144 56 -300 90 -369 29 -60 89
-118 201 -192 90 -60 459 -247 811 -411 133 -63 242 -117 242 -121 0 -9 -89
-36 -168 -50 -32 -7 -124 -9 -212 -7 -174 5 -313 32 -494 95 -192 66 -315 132
-441 236 -32 27 -61 45 -62 40 -6 -17 156 -425 221 -558 45 -92 78 -144 110
-177 148 -149 384 -233 690 -247 143 -6 414 2 466 14 42 9 -145 -164 -257
-239 -318 -211 -649 -281 -911 -192 -39 13 -72 22 -75 20 -6 -6 19 -125 39
-189 45 -138 150 -289 238 -340 130 -75 349 -92 538 -42 161 42 374 143 532
250 66 44 67 39 14 -50 -47 -77 -145 -191 -213 -246 -77 -62 -237 -141 -340
-168 -57 -15 -124 -22 -230 -26 -152 -5 -157 -5 -382 44 -13 3 -23 1 -23 -6 0
-15 137 -216 206 -302 79 -97 192 -192 282 -236 64 -32 86 -37 161 -41 200
-10 454 105 745 338 115 92 340 298 380 348 10 12 20 21 23 18 9 -9 -50 -182
-89 -261 -59 -116 -112 -190 -193 -271 -104 -103 -232 -184 -378 -239 -40 -15
-47 -21 -41 -39 3 -12 9 -24 13 -27 8 -9 216 8 326 27 235 40 423 117 620 253
209 144 404 404 480 638 l17 52 -35 58 c-49 82 -81 149 -102 213 -23 73 -29
78 -62 52 -48 -38 -151 -93 -256 -137 l-101 -43 -56 48 c-115 100 -170 166
-215 262 -24 51 -47 110 -50 131 -4 20 -11 40 -16 43 -6 3 -39 10 -76 15 -77
11 -164 50 -246 111 l-59 43 7 80 c4 44 18 112 31 150 41 115 41 109 -7 131
-46 20 -141 87 -204 142 l-37 33 18 42 c11 23 47 84 81 135 l63 93 -33 27
c-117 97 -207 204 -207 248 0 52 102 170 243 281 l28 22 -50 83 c-28 46 -69
124 -90 173 -37 84 -38 91 -23 109 32 35 177 138 240 169 54 27 62 35 56 52
-4 11 -9 84 -11 163 l-5 142 -31 16 c-195 99 -709 415 -896 551 -312 228 -526
440 -579 574 -11 30 -21 39 -38 39 -13 0 -27 -8 -32 -17z"/>
<path d="M10221 9643 c-123 -254 -581 -614 -1293 -1017 l-206 -117 -5 -137
c-3 -75 -8 -149 -12 -163 -6 -23 -3 -28 26 -39 48 -20 197 -120 246 -166 l43
-39 -64 -132 c-35 -73 -76 -147 -90 -166 -32 -42 -32 -51 0 -72 49 -32 183
-167 215 -216 22 -34 29 -56 25 -73 -10 -41 -91 -140 -162 -201 -38 -32 -70
-61 -72 -64 -1 -4 15 -31 37 -60 22 -29 58 -88 80 -130 l40 -78 -37 -35 c-52
-50 -150 -120 -200 -142 -23 -10 -42 -24 -42 -30 0 -6 12 -47 26 -91 15 -45
28 -115 31 -161 l6 -81 -52 -41 c-81 -64 -176 -104 -281 -117 -45 -6 -45 -6
-58 -57 -6 -28 -30 -90 -53 -137 -36 -75 -55 -99 -151 -193 l-109 -107 -52 20
c-100 40 -220 99 -278 139 -32 22 -63 40 -67 40 -5 0 -19 -35 -33 -77 -13 -42
-48 -119 -78 -171 l-54 -95 18 -55 c28 -89 120 -260 190 -353 203 -271 528
-465 885 -528 137 -25 342 -43 353 -31 5 4 7 18 5 30 -2 18 -16 28 -58 44
-262 101 -468 300 -575 556 -23 55 -65 184 -65 200 0 3 48 -41 108 -98 513
-493 928 -690 1192 -566 116 55 240 170 365 339 65 87 138 206 131 212 -2 3
-47 -5 -98 -18 -80 -20 -117 -23 -273 -23 -207 0 -277 14 -424 84 -182 88
-294 195 -421 405 l-25 40 35 -23 c337 -221 639 -323 873 -294 220 27 329 105
427 307 40 82 80 216 80 268 0 24 -3 28 -17 22 -208 -84 -410 -80 -658 12
-113 42 -276 130 -366 198 -96 73 -226 191 -219 197 3 3 37 1 75 -3 101 -12
459 -11 546 1 166 24 334 78 434 142 74 47 155 129 192 196 64 114 268 617
257 634 -3 4 -36 -18 -74 -50 -309 -260 -943 -399 -1275 -279 l-40 15 135 65
c74 35 205 97 290 137 206 97 479 233 561 281 114 66 223 153 257 205 63 95
114 313 132 569 12 174 13 265 1 265 -5 0 -28 -30 -52 -67 -58 -89 -132 -160
-242 -234 -138 -92 -424 -225 -621 -288 -116 -37 -375 -103 -388 -99 -6 2 23
26 63 52 269 178 656 495 823 674 124 133 184 219 224 320 25 65 26 75 26 277
1 198 -17 443 -35 493 -15 40 -52 29 -78 -25z"/>
<path d="M6897 9538 c-24 -18 -12 -58 18 -58 44 0 85 -21 92 -48 13 -54 -34
-87 -162 -113 -172 -35 -238 -25 -395 63 -118 66 -202 69 -253 8 -14 -16 -27
-34 -29 -40 -1 -5 -82 -24 -178 -40 -294 -50 -373 -82 -433 -172 -75 -114 -68
-233 20 -337 l29 -34 14 34 c43 107 136 177 223 166 106 -12 255 -97 379 -215
l73 -70 -135 -7 c-74 -4 -234 -5 -355 -4 -195 4 -224 6 -251 23 -33 19 -85 91
-94 130 -4 15 -15 22 -37 24 -30 3 -32 1 -38 -42 -8 -50 1 -119 20 -156 18
-34 52 -64 105 -90 l45 -23 387 7 387 7 -9 -33 c-5 -18 -21 -43 -35 -55 -26
-23 -29 -23 -326 -23 l-299 0 0 -30 c0 -72 57 -120 141 -120 23 0 80 7 127 16
117 22 162 2 162 -73 0 -56 -43 -89 -150 -116 -41 -11 -45 -15 -45 -42 l0 -30
68 2 c170 3 321 76 396 189 26 40 32 44 37 28 37 -105 77 -154 127 -154 55 0
97 61 112 163 l7 47 29 -44 c104 -157 269 -268 462 -310 22 -5 29 -2 39 19 10
23 6 30 -60 99 -51 54 -82 98 -111 158 -74 153 -117 393 -109 598 7 160 23
187 208 332 69 55 94 103 94 183 -1 68 -18 110 -63 148 -49 41 -196 63 -234
35z m-454 -290 c3 -13 9 -44 12 -70 l7 -48 -30 0 c-28 0 -31 -4 -37 -42 -19
-112 -166 -119 -189 -8 l-5 30 -76 -7 c-69 -5 -75 -4 -75 13 0 15 34 32 173
86 94 37 182 68 193 68 15 0 24 -8 27 -22z"/>
<path d="M8280 9011 l-25 -7 -6 -169 c-7 -186 -24 -281 -69 -381 -68 -151
-161 -248 -368 -387 -215 -145 -284 -229 -298 -364 -4 -33 -1 -91 5 -129 22
-124 65 -194 146 -237 80 -44 238 -21 388 55 22 11 41 17 44 15 12 -13 14
-161 4 -242 -28 -206 -112 -333 -256 -382 l-44 -15 5 -41 c29 -238 32 -297 18
-409 -28 -220 -14 -333 48 -404 17 -20 68 -54 112 -76 l81 -41 63 69 c76 81
87 101 102 182 12 68 3 167 -24 257 -9 27 -14 50 -13 52 2 1 31 -9 64 -22 102
-42 235 -56 328 -36 39 8 43 39 15 113 -27 73 -70 137 -145 214 l-60 64 36 0
c61 0 190 38 276 81 l83 41 -22 40 c-27 48 -155 172 -228 221 -34 23 -48 38
-39 41 8 2 37 9 64 16 28 6 77 23 110 38 77 33 205 119 205 136 0 32 -184 173
-307 235 -24 12 -43 24 -43 27 0 3 27 33 59 66 55 55 124 147 180 241 l23 37
-64 30 c-79 37 -163 59 -255 67 l-71 6 24 37 c53 80 68 144 69 290 0 152 -16
242 -70 405 -31 91 -110 276 -117 274 -2 -1 -14 -4 -28 -8z"/>
<path d="M4712 8993 c-68 -128 -152 -382 -173 -523 -23 -158 5 -335 67 -415
13 -17 24 -34 24 -37 0 -3 -33 -8 -72 -11 -114 -10 -308 -75 -308 -103 0 -24
124 -198 191 -269 l68 -71 -47 -24 c-124 -66 -312 -205 -312 -232 0 -41 286
-188 365 -188 32 0 21 -19 -34 -57 -120 -85 -240 -215 -228 -247 15 -38 260
-126 350 -126 l40 0 -75 -79 c-83 -86 -145 -196 -150 -266 -3 -39 -2 -40 37
-47 109 -19 228 -4 331 42 l61 27 -24 -76 c-18 -55 -25 -100 -26 -167 -2 -86
0 -95 36 -165 20 -41 55 -94 78 -118 l40 -45 74 37 c40 19 89 50 108 67 62 54
69 87 78 355 4 132 14 299 22 370 9 77 11 134 6 141 -5 6 -26 16 -46 22 -131
41 -220 182 -243 384 -12 103 -4 242 14 234 80 -37 196 -79 243 -87 201 -37
325 89 325 331 0 170 -59 251 -297 410 -172 114 -230 163 -289 241 -113 150
-155 287 -165 534 l-6 170 -27 3 c-18 2 -30 -3 -36 -15z"/>
<path d="M6290 7911 c-85 -58 -165 -85 -376 -126 -16 -4 -32 -31 -68 -117 -25
-63 -85 -185 -132 -273 -116 -217 -225 -434 -262 -525 -142 -344 -143 -646 -2
-1000 83 -209 151 -326 491 -850 203 -315 252 -427 253 -580 1 -80 -3 -104
-23 -150 -52 -118 -110 -193 -278 -357 -100 -99 -159 -165 -151 -168 42 -14
156 -27 239 -26 155 1 266 45 352 141 l45 50 6 -67 c18 -207 52 -338 101 -398
l25 -30 21 25 c56 70 98 220 99 350 0 36 3 75 6 87 6 21 9 19 55 -26 55 -54
141 -103 212 -120 98 -24 377 -7 377 23 0 6 -39 47 -87 90 -103 93 -231 230
-274 292 -17 25 -45 75 -62 112 -28 61 -31 76 -31 167 0 177 31 243 347 732
189 293 240 380 318 534 134 269 179 435 179 670 0 225 -51 409 -185 674 -216
424 -323 635 -345 685 l-25 55 -55 6 c-128 15 -287 77 -339 133 -30 32 -42 32
-67 5 -30 -34 -100 -79 -133 -85 -35 -7 -78 16 -130 70 -19 20 -37 36 -40 35
-4 0 -31 -17 -61 -38z m286 -366 c69 -41 138 -112 155 -160 7 -18 23 -38 37
-44 126 -58 185 -224 134 -376 -11 -33 -20 -61 -18 -62 1 -1 24 4 51 12 66 20
114 19 179 -5 58 -22 114 -75 142 -134 10 -21 28 -37 49 -45 77 -27 175 -146
175 -211 0 -38 -54 -131 -102 -177 -18 -17 -51 -41 -74 -52 -25 -13 -53 -40
-73 -70 -79 -123 -247 -165 -386 -97 -28 14 -55 26 -58 26 -4 0 -7 -52 -7
-115 0 -85 3 -115 13 -116 22 -1 91 -103 114 -169 51 -149 15 -266 -109 -346
-35 -23 -61 -48 -67 -65 -21 -59 -174 -189 -223 -189 -20 0 -126 70 -165 109
-17 18 -41 52 -53 76 -13 27 -31 47 -49 55 -40 16 -97 78 -120 130 -33 74 -36
139 -13 217 22 70 95 183 119 183 10 0 13 27 13 115 0 91 -3 115 -14 115 -7 0
-19 -6 -25 -14 -20 -24 -159 -59 -212 -53 -86 10 -169 69 -210 149 -12 24 -32
43 -54 52 -52 22 -122 92 -161 163 l-36 63 33 57 c42 74 101 133 162 161 26
12 47 28 47 36 0 8 20 36 45 64 60 67 113 87 227 87 98 0 94 -4 62 72 -52 130
1 274 128 346 26 14 48 38 63 67 29 56 83 108 155 149 30 17 58 31 61 31 3 0
32 -16 65 -35z"/>
<path d="M6446 7398 c-20 -22 -43 -60 -52 -83 -13 -35 -22 -44 -53 -54 -86
-25 -121 -79 -121 -186 0 -75 8 -80 55 -35 27 26 35 29 58 21 22 -8 26 -18 32
-63 3 -29 5 -115 3 -192 l-3 -138 -139 1 c-88 0 -143 5 -152 12 -23 19 -16 53
16 84 17 16 30 32 30 36 0 3 -31 9 -69 13 -54 6 -77 4 -100 -8 -40 -21 -69
-61 -82 -112 -10 -37 -15 -43 -46 -49 -32 -6 -133 -86 -133 -105 0 -26 118
-110 155 -110 8 0 15 -9 15 -20 0 -30 23 -70 60 -105 29 -28 38 -30 116 -34
46 -1 84 1 84 5 0 4 -15 23 -32 41 -31 32 -32 35 -17 61 15 27 15 27 147 30
l132 3 0 -329 c0 -306 -1 -330 -18 -345 -26 -23 -36 -21 -75 13 -19 17 -40 30
-46 30 -17 0 -14 -135 4 -170 19 -37 66 -70 109 -77 28 -4 35 -10 40 -36 8
-40 51 -102 89 -129 l30 -22 39 43 c21 24 46 65 55 90 13 38 21 47 41 49 34 3
81 31 106 65 16 22 22 47 25 108 4 88 -6 99 -49 54 -24 -26 -54 -32 -80 -15
-13 8 -15 58 -15 347 l0 338 132 0 c120 0 134 -2 147 -20 21 -28 21 -30 -19
-74 -29 -32 -32 -40 -19 -45 30 -12 135 -6 164 9 34 17 80 80 80 108 0 16 6
18 32 15 41 -7 97 9 124 33 11 10 25 19 31 19 19 0 25 37 12 80 -8 27 -17 39
-26 36 -7 -3 -34 6 -60 19 -25 14 -52 25 -58 25 -7 0 -16 15 -19 33 -8 42 -61
106 -102 123 -19 8 -61 14 -94 14 -68 0 -76 -12 -35 -50 27 -25 33 -68 13 -88
-8 -8 -56 -12 -150 -12 l-138 0 0 188 c0 154 3 192 16 210 21 30 45 28 79 -8
46 -48 55 -41 55 46 0 60 -4 82 -20 104 -26 36 -80 70 -112 70 -20 0 -26 7
-36 44 -11 42 -88 136 -111 136 -5 0 -25 -19 -45 -42z"/>
<path d="M5574 5192 c-12 -9 -37 -48 -56 -87 -137 -275 -343 -503 -524 -580
-21 -9 -66 -22 -99 -29 -53 -11 -60 -16 -63 -38 -3 -23 3 -28 55 -48 115 -45
317 -38 490 15 42 13 79 22 81 20 2 -2 -11 -36 -28 -75 -38 -87 -54 -181 -45
-274 13 -144 79 -334 111 -322 8 3 20 6 25 6 5 0 9 48 9 108 0 60 7 135 16
172 33 145 154 341 301 491 l75 76 -32 79 c-37 93 -147 291 -231 416 -33 48
-61 88 -62 88 -1 0 -12 -8 -23 -18z"/>
<path d="M7413 5203 c-7 -3 -13 -9 -13 -13 0 -5 -33 -60 -74 -122 -84 -128
-174 -295 -207 -382 l-21 -58 70 -72 c138 -141 233 -287 283 -436 28 -81 33
-113 37 -217 2 -68 8 -123 12 -123 5 0 16 -3 24 -6 31 -12 87 148 106 297 13
111 0 206 -41 299 -18 39 -30 72 -28 75 3 2 40 -7 82 -20 116 -36 214 -48 329
-43 115 6 218 38 218 67 0 28 -14 38 -63 45 -203 30 -447 267 -622 601 -47 90
-69 116 -92 108z"/>
<path d="M3688 4330 c-42 -23 -79 -67 -102 -124 -15 -36 -15 -40 1 -52 26 -19
37 -17 61 11 32 37 66 47 113 35 21 -6 41 -15 44 -20 13 -21 35 -9 54 28 11
21 38 51 60 66 23 16 41 32 41 36 0 4 -27 14 -60 23 -80 23 -165 21 -212 -3z"/>
<path d="M9113 4333 c-29 -9 -53 -19 -53 -24 0 -5 18 -21 41 -36 22 -14 49
-44 60 -65 22 -43 29 -45 65 -22 13 9 42 17 64 18 32 0 46 -6 74 -33 33 -32
38 -33 60 -21 21 11 23 16 15 39 -23 61 -62 112 -103 136 -51 30 -138 33 -223
8z"/>
<path d="M3973 4230 c-64 -38 -83 -128 -40 -191 12 -18 49 -48 82 -66 33 -19
73 -48 89 -65 28 -30 28 -32 10 -45 -13 -10 -34 -13 -69 -9 -121 14 -205 18
-238 12 -75 -14 -136 -98 -137 -186 0 -57 24 -105 73 -144 35 -28 45 -31 111
-31 71 0 74 1 150 52 115 78 213 101 291 68 46 -19 60 -54 40 -101 -20 -49
-50 -82 -147 -165 -106 -90 -144 -132 -174 -194 -31 -65 -31 -118 2 -183 35
-71 81 -104 149 -110 67 -6 117 11 167 56 56 51 85 116 119 263 15 70 38 149
50 173 40 86 109 126 214 126 43 0 62 -7 125 -46 102 -64 168 -64 238 0 72 64
69 177 -4 235 -33 26 -112 28 -175 5 -82 -29 -170 -13 -154 28 3 8 30 28 58
43 111 59 245 156 313 226 70 73 129 159 122 179 -2 5 -58 12 -128 14 -69 3
-151 11 -183 19 l-59 15 -26 -31 c-125 -147 -239 -241 -340 -283 -95 -39 -198
-27 -234 27 -19 30 -46 119 -53 181 -11 89 -77 148 -165 148 -27 0 -58 -8 -77
-20z"/>
<path d="M8892 4233 c-54 -26 -81 -71 -97 -160 -17 -98 -34 -140 -70 -173 -24
-22 -35 -25 -103 -25 -65 1 -86 5 -132 29 -86 45 -151 97 -250 204 l-92 99
-57 -14 c-31 -8 -112 -16 -181 -19 -69 -2 -126 -9 -128 -14 -7 -21 56 -117
118 -180 74 -75 164 -141 265 -196 85 -45 105 -62 105 -85 0 -33 -76 -41 -149
-15 -64 23 -142 21 -175 -5 -36 -29 -56 -70 -56 -119 0 -61 26 -107 76 -136
75 -44 147 -32 243 40 28 21 46 26 90 26 159 0 216 -64 268 -298 49 -223 129
-322 262 -322 66 0 120 27 153 77 33 50 40 74 40 135 -1 89 -46 153 -198 281
-130 109 -173 181 -140 231 46 71 219 53 329 -35 76 -61 156 -75 233 -40 109
50 137 200 54 294 -49 56 -129 69 -282 45 -59 -9 -84 -9 -103 0 -23 11 -24 14
-14 34 15 29 30 41 101 79 99 54 134 139 88 214 -37 61 -128 83 -198 48z"/>
<path d="M3518 3673 c-91 -95 -109 -207 -50 -325 41 -83 72 -114 101 -99 25
14 26 27 6 74 -8 20 -15 55 -15 78 0 33 6 47 33 73 17 18 39 35 47 38 13 4 12
12 -7 52 -13 25 -23 64 -23 84 0 71 -38 81 -92 25z"/>
<path d="M9422 3698 c-7 -7 -12 -28 -12 -48 0 -20 -9 -53 -20 -75 -25 -49 -25
-62 -2 -69 59 -19 85 -99 58 -176 -21 -59 -20 -67 5 -80 28 -15 47 3 90 83 25
47 33 77 37 132 5 85 -14 138 -73 204 -38 42 -62 50 -83 29z"/>
<path d="M7736 3582 c-57 -42 -96 -109 -96 -161 0 -37 39 -133 59 -145 6 -4
16 -16 21 -26 8 -14 -32 2 -140 56 -155 79 -245 145 -256 190 -7 29 -1 28 -94
3 -99 -27 -241 -35 -311 -19 -30 7 -83 28 -118 47 -35 18 -65 32 -67 30 -7 -7
32 -110 69 -183 71 -142 304 -397 430 -472 30 -18 88 -45 128 -59 61 -21 86
-24 159 -21 72 2 96 8 150 35 l65 32 51 -53 c76 -78 114 -197 114 -358 0 -90
-25 -267 -55 -381 -21 -84 -22 -93 -7 -104 27 -22 38 -15 94 55 108 134 169
242 209 372 31 98 33 257 5 340 -56 166 -170 310 -332 417 l-52 35 -7 78 c-9
99 3 127 67 159 l48 23 -20 28 c-11 15 -20 44 -20 64 0 25 -6 38 -19 46 -25
13 -19 15 -75 -28z"/>
<path d="M5168 3589 c-13 -7 -16 -17 -11 -40 4 -22 0 -38 -16 -60 -24 -32 -21
-49 9 -49 10 0 32 -12 49 -26 31 -25 31 -27 31 -122 l1 -97 35 40 c107 120
103 240 -12 327 -53 41 -60 43 -86 27z"/>
<path d="M6217 3526 c-109 -63 -254 -72 -414 -26 -40 11 -75 20 -78 20 -2 0
-11 -15 -19 -34 -20 -48 -88 -95 -260 -183 -201 -101 -276 -151 -371 -248 -84
-84 -129 -152 -174 -257 -24 -58 -26 -74 -26 -203 1 -134 2 -144 33 -220 52
-130 114 -233 225 -370 23 -27 27 -28 52 -17 21 10 26 18 22 35 -63 269 -82
463 -58 602 16 93 62 185 112 228 l40 35 62 -32 c58 -29 68 -31 172 -31 l110
0 95 47 c116 57 226 149 330 277 111 135 167 236 214 389 10 29 2 28 -67 -12z"/>
<path d="M6319 3157 c-118 -235 -334 -457 -522 -536 -121 -50 -196 -64 -339
-63 -77 0 -128 -3 -128 -9 0 -24 42 -88 79 -122 45 -41 87 -64 143 -81 l39
-11 -62 -50 c-157 -125 -185 -238 -87 -350 50 -56 85 -75 140 -75 65 0 126 47
189 145 32 49 39 56 44 40 20 -61 73 -150 108 -181 53 -48 111 -72 199 -84
144 -19 153 -13 65 44 -152 97 -227 263 -199 442 13 82 56 200 105 290 l32 59
7 -95 c12 -153 27 -249 55 -340 49 -163 129 -287 215 -331 51 -26 129 -25 186
2 139 68 262 382 262 674 0 61 4 95 9 90 24 -25 102 -198 121 -269 18 -63 21
-99 18 -176 -3 -85 -8 -105 -37 -165 -38 -77 -103 -148 -174 -189 -26 -15 -47
-32 -47 -38 0 -14 152 0 210 19 90 30 161 103 205 210 l23 56 27 -44 c67 -106
133 -159 201 -159 88 0 194 107 194 197 0 75 -66 173 -160 238 -22 15 -40 31
-40 35 0 3 25 14 55 24 30 9 76 34 102 55 46 36 109 131 96 145 -3 3 -56 6
-117 6 -255 1 -440 81 -632 274 -89 90 -209 256 -248 344 -20 45 -35 52 -57
26 -7 -8 -30 -24 -50 -35 l-38 -19 -58 26 c-111 49 -99 51 -134 -19z"/>
<path d="M3907 3018 c-55 -94 -70 -140 -70 -213 -1 -53 4 -80 21 -110 27 -52
78 -106 132 -140 42 -27 43 -27 62 -7 20 19 19 20 -20 72 -48 63 -59 107 -37
149 8 16 19 33 25 36 18 11 10 40 -19 67 -33 32 -46 63 -58 138 l-8 55 -28
-47z"/>
<path d="M9077 3054 c-4 -4 -7 -25 -7 -46 0 -50 -23 -105 -62 -145 l-31 -32
27 -31 c44 -53 33 -133 -28 -189 -31 -29 -32 -42 -8 -64 17 -16 21 -15 63 11
67 43 127 117 145 179 21 73 11 134 -38 230 -43 86 -51 97 -61 87z"/>
</g>
</svg>
