<svg id="Layer_1" xmlns="http://www.w3.org/2000/svg" viewBox="0 0 235.9 130.8"><style>.st0{fill:#FFFFFF;} .st1{fill:#8E979D;} .st2{fill:#7A003C;stroke:#7A003C;stroke-width:0.3;} .st3{fill:#FEC057;stroke:#FEC057;stroke-width:0.3;}</style><path class="st0" d="M203.7 130.6c-18.1-5.6-29.1-23.8-30.1-34.8V49.9H235.3v45.7c-1 11.1-11.9 29.5-30 35.1l-.9.2-.7-.3zM46.8 41.3c-.5-.5-1.2-.4-1.7-.4h-.2c-.8 0-1.5-.1-2-.7-.6-.8-.6-3.3-.6-4.4V7.9v-.8c0-1.2-.1-3.2.4-3.9.3-.5 1.2-.4 1.8-.4h.4c1.7 0 1.9-1.1 1.9-1.5 0-.4-.1-.7-.4-.9-.4-.4-1-.3-1.4-.3h-7c-.7 0-1.5 0-2 1.2L24.1 32c-2-5.4-10.6-29.6-10.6-29.6-.1-.2-.1-.3-.1-.5-.3-.9-.5-1.9-1.8-1.9H4.2c-.5 0-1-.1-1.4.3-.2.2-.3.5-.3.9 0 .5.2 1.5 1.9 1.5 1.4 0 2.2.1 2.6.4.4.4.4 1.3.3 3.1L5.4 36c-.2 3.6-.4 4.8-3.3 4.8-1.7 0-2 .8-2 1.3 0 .6.2 1.2 1.4 1.2.9 0 1.8-.1 2.6-.1.9-.1 1.8-.1 2.7-.1.9 0 1.8.1 2.7.1.9.1 1.8.1 2.7.1.5 0 1.7 0 1.7-1.2 0-.3-.1-.6-.3-.8-.5-.5-1.3-.5-1.8-.5h-.1c-1.2 0-2.1-.3-2.6-.9-1.1-1.2-1.1-3.5-.9-6.4L9.7 7l11.5 33.3v.1c.1.6.4 1.6 1.3 1.6.8 0 1-.8 1.2-1.3 0-.1 0-.1.1-.2L36.7 6.3V36c0 1.2 0 3.4-.8 4.1-.6.5-1.7.9-2.5.9h-.2c-.5 0-1.3 0-1.7.4-.2.2-.3.5-.3.9 0 .6.3 1.2 1.6 1.2 1.2 0 2.4-.1 3.5-.1 1.2-.1 2.4-.1 3.6-.1 1 0 1.9.1 2.9.1.9.1 1.9.1 2.9.1 1.3 0 1.6-.7 1.6-1.2-.1-.4-.3-.7-.5-1z"/><path class="st0" d="M69.9 20.7c-1 0-1.7-1.2-2.6-2.8-1.2-2.2-2.8-4.9-5.7-4.9-2.2 0-4.6 1.4-6.1 2.8-2.8 2.7-4.4 6.8-4.4 11 0 6.7 4.4 14 11.4 14 2.8 0 5.2-1 7-2.9l.1-.1c.4-.5.7-.8 1.1-.8.5 0 .9.4.9 1 0 .4-.2 1.1-2 2.8-2.6 2.3-5.9 3.6-9.5 3.6-7.9 0-14.5-7.4-14.5-16.1 0-9.4 7.7-17.3 16.8-17.3 2.4 0 5.9.8 8 2.4.8.6.8 1.8.7 2.8v1c.1 1.3.1 2.7-.5 3.3-.2.1-.4.2-.7.2zM118.3 41.3c-.5-.5-1.2-.4-1.7-.4h-.2c-.8 0-1.5-.1-2-.7-.6-.8-.6-3.3-.6-4.4V7.9v-.8c0-1.2-.1-3.2.4-3.9.3-.5 1.2-.4 1.8-.4h.4c1.7 0 1.9-1.1 1.9-1.5 0-.4-.1-.7-.4-.9-.4-.4-1-.3-1.4-.3H109.4c-.7 0-1.5 0-2 1.2L95.6 32C93.7 26.6 85 2.4 85.1 2.4c-.1-.2-.1-.3-.2-.5-.3-.9-.5-1.9-1.8-1.9h-7.4c-.5 0-1-.1-1.4.3-.2.2-.3.5-.3.9 0 .5.2 1.5 1.9 1.5 1.4 0 2.2.1 2.6.4.4.4.4 1.3.3 3.1L76.9 36c-.2 3.6-.4 4.8-3.3 4.8-1.7 0-2 .8-2 1.3 0 .6.2 1.2 1.4 1.2.9 0 1.8-.1 2.6-.1.9-.1 1.8-.1 2.7-.1.9 0 1.8.1 2.7.1.9.1 1.8.1 2.7.1.5 0 1.7 0 1.7-1.2 0-.3-.1-.6-.3-.8-.5-.5-1.3-.5-1.8-.5h-.1c-1.2 0-2.1-.3-2.6-.9-1.1-1.2-1.1-3.5-.9-6.4L81.2 7l11.5 33.3v.1c.1.6.4 1.6 1.3 1.6.8 0 1-.8 1.2-1.3 0-.1 0-.1.1-.2l12.9-34.1v29.7c0 1.2 0 3.4-.8 4.1-.6.5-1.7.9-2.5.9h-.2c-.5 0-1.3 0-1.7.4-.2.2-.3.5-.3.9 0 .6.3 1.2 1.6 1.2 1.2 0 2.4-.1 3.5-.1 1.2-.1 2.4-.1 3.6-.1 1 0 1.9.1 2.9.1.9.1 1.9.1 2.9.1 1.3 0 1.6-.7 1.6-1.2-.1-.5-.2-.8-.5-1.1z"/><path class="st0" d="M132.7 25.6c2.1-1.1 2.1-1.1 2.1-3.6v-3c0-3.7-.2-5.9-3.7-5.9-3.3 0-5.3 1.6-6.9 5.6l-.1.3c-.4.9-.8 1.9-1.8 2.4-.6.4-2 1-2.9 1-.8 0-1.2-.4-1.2-1.3 0-2 1.5-4.1 2.8-5.3 3.1-3.1 7.5-5 11.7-5 2.8 0 4.8.7 6.1 2 1.4 1.3 1.4 3 1.4 4.7v17.3c0 1.1 0 3.8 1 4.7.2.2.5.3.8.3.8 0 1.4-.6 1.8-1.1.3-.4.6-.7 1-.7.5 0 .9.4.9 1 0 .9-1 1.9-1.6 2.4l-.1.1c-1.3 1-3 2.1-4.8 2.1-2.3 0-3.2-2.3-3.8-3.8-.2-.4-.4-1-.6-1.1h.2c-.1.1-.5.4-.8.7-1.7 1.5-5.2 4.6-9.5 4.6-3.1 0-6.3-2.1-6.3-5.9 0-5 5.5-8 9.2-10l.4-.2c-.2.3 4.7-2.3 4.7-2.3zm-4.2 4.7c-2.5 1.4-4.8 3.1-4.8 6.2 0 2.7 2.1 3.7 4 3.7 2 0 4.1-1 5.6-2.7 1.4-1.6 1.5-2.7 1.5-5v-4.2-.2c.1-1.1-.1-1.3-.1-1.4h.1c-.1 0-.2.1-.3.1-.1 0-.2.1-.3.1h.1c0 .2-5.8 3.4-5.8 3.4zM146.8 34.5c.1-.7.2-1.9 1.2-1.9 1.1 0 1.4 1.4 1.7 2.9.5 2.8 1.3 6.7 6.6 6.7 3.5 0 7.3-2.3 7.3-6.5 0-3.9-3-5.3-5.8-6.3l-.6-.2c-4-1.4-9.4-3.3-9.4-9 0-2.7 1.2-5 3.5-6.9 2-1.6 4.6-2.4 7.7-2.4 1.6 0 5.1.5 6.7 1.2 1.1.6 1 1.9 1 2.9v1c.1 1.3.2 2.6-.4 3.2-.2.2-.4.3-.7.3-.8 0-1.1-.8-1.5-1.9-.8-2-1.8-4.7-6.2-4.7-2.2 0-5.4 1.7-5.4 4.8 0 3.5 3.1 4.6 6.7 6 4.3 1.6 9.2 3.5 9.2 9.9 0 7.4-7.3 10.7-12.4 10.7-2.2 0-6-.9-8.3-2.2-1.1-.5-1.1-1.6-1.1-2.6v-.3l.2-4.7zM186.1 39.3c0-.4-.4-.9-.9-.9-.3 0-.6.2-1.1.7-.8.7-2 1.8-3.4 1.8-.8 0-1.4-.2-1.9-.7-1.4-1.4-1.4-4.8-1.4-7v-18c0-.7.1-.9.2-1 .2-.2.5-.1 1-.1h4.9c.6 0 1 .1 1.3-.3.3-.3.4-.8.4-1.3s0-1.4-1-1.4H178c-.5 0-.6-.1-.6-1v-5c0-1-.5-1.3-.9-1.3-.6 0-.9.6-1 .9-1.4 3.3-3.1 5-5.9 6.9l-.1.1c-.3.3-.8.6-.8 1.2 0 .3.1.5.3.7.4.4 1.2.4 1.9.3H172.1s.1.2.1.8V34c0 2.7-.1 5.8 1.5 8 1.1 1.5 2.9 2.3 4.9 2.3 2.2 0 4.4-1 6.2-2.7.3-.4 1.3-1.4 1.3-2.3zM212.5 35.8c-.4 0-.7.3-1.3.9-1.3 1.3-3.7 3.6-8 3.6-7.8 0-11.9-7.2-11.9-14.3 0-.9.1-1.3.3-1.5.2-.2.8-.2 1.6-.2h19.5c.4 0 1.2-.2 1.2-1.6 0-2.4-1-5.5-2.3-7.3-2.1-2.9-5.6-4.5-9.4-4.5-4.4 0-8.4 1.7-11.7 4.8-3.2 3.1-4.6 6.8-4.6 12 0 9.3 6.5 16.6 14.8 16.6 4.1 0 7.3-1.2 10.3-4.1 1.8-1.7 2.6-2.7 2.6-3.4-.1-.6-.5-1-1.1-1zm-19.1-18.3c1.8-2.8 4.8-4.5 7.9-4.5 1.6 0 3.7.4 5.2 2 .9 1.1 1.5 2.6 1.5 3.8 0 1.3-.6 2-2 2.4-1.8.5-5.3.5-7.2.5H193.4c-.4 0-1.1 0-1.3-.2 0 0-.1-.1-.1-.3-.2-.9.8-2.9 1.4-3.7zM231.9 11.2c-3.4 0-5.6 3.1-6.9 4.7-.2.2-.4.5-.5.7v-.7-3.7c0-.3 0-.8-.3-1.1-.1-.1-.3-.3-.7-.3-.6 0-1 .5-1.3.8-.1.1-.1.2-.2.2-1 1.3-3.6 3-5.1 3.5-.1 0-.2.1-.3.1-.6.2-1.5.5-1.5 1.5 0 .6.5 1 1.2 1h.8c.7 0 1.3.2 1.5.4.5.6.5 3.1.5 4V36.8c.1 2.6 0 3.9-2.5 4.2h-.3c-.6 0-1.8.1-1.8 1.4 0 .7.5 1.1 1.3 1.1 1 0 2-.1 3-.1 1-.1 2-.1 3-.1.9 0 1.9 0 2.8.1 1 .1 2.1.1 3.1.1.7 0 1.2-.5 1.2-1.2 0-1.2-1.2-1.3-1.9-1.3h-.3c-2.5-.3-2.6-1.5-2.5-4.2V24.5c0-2.6 0-4.3 1.4-6.5.7-.9 1.7-2.4 2.9-2.4.6 0 1 .4 1.5 1.1.6.7 1.2 1.6 2.6 1.6 1.8 0 3.1-1.3 3.1-3.2.2-2.2-1.5-3.9-3.8-3.9zM20.7 57.5v-.2c0-.9 0-3-.4-3.6-.3-.7-1-.7-1.8-.7h-.1c-.3 0-.8 0-1.1-.3-.1-.1-.3-.3-.3-.6s.1-.5.3-.7c.2-.2.5-.3.9-.3.6 0 1.1 0 1.7.1.5 0 1.1.1 1.6.1s.9 0 1.4-.1c.5 0 1-.1 1.5-.1 1.1 0 1.2.7 1.2.9 0 .7-.5 1-1.6 1-1.4 0-1.4.7-1.5 2.4V68.8c0 2.5 0 4.7-2.1 6.8-1.6 1.5-4 2.3-7.2 2.3-1.7 0-5-.3-7.1-2-2.3-1.8-2.3-4.3-2.3-6.9V55.4c0-1.1 0-1.8-.3-2.1-.2-.2-.8-.3-1.7-.3-.9 0-1.3-.3-1.3-.9 0-.3.1-.5.3-.7.1-.3.4-.4.7-.4.7 0 1.4 0 2.1.1.7 0 1.3.1 2 .1s1.4 0 2.1-.1c.7 0 1.4-.1 2.1-.1.6 0 1 .4 1 1s-.5.9-1.4.9c-.9 0-1.4.1-1.7.3-.3.3-.3 1-.3 2.1v12.4c0 1.7 0 4.4.7 5.7 1.2 2.3 4.6 2.4 5.6 2.4 1.4 0 4-.3 5.6-2.1 1.2-1.4 1.2-3.1 1.2-5V57.5zM44.9 75.7h-.2c-1.3-.1-1.3-.7-1.3-2.3v-7.5c0-1.9 0-3.9-1.2-5.6-1.1-1.6-2.7-2.4-4.7-2.4-2.5 0-4.3 1.7-5.4 2.7l-.2.2v-2c0-.2 0-.6-.2-.8-.1-.1-.3-.2-.5-.2-.4 0-.7.3-.9.5l-.1.1c-.5.7-2.1 1.7-2.9 2h-.1c-.3.1-1 .3-1 1 0 .4.3.7.9.7h.5c.4 0 .7.1.8.2.1.1.3.6.3 2.2V73c0 1.6 0 2.1-1.3 2.3h-.2c-.4 0-1.2.1-1.2 1 0 .4.2.8.9.8.6 0 1.2 0 1.7-.1.6 0 1.2-.1 1.7-.1s1.1 0 1.6.1c.6 0 1.2.1 1.8.1.5 0 .9-.3.9-.9 0-.8-.9-.9-1.2-.9h-.2c-1.2.2-1.2-.3-1.2-1.9V65.8c0-1.6.1-2.4 1.1-3.5.9-1 2.1-1.6 3.3-1.6 1.3 0 2.5.6 3.1 1.6.6 1 .6 2.6.6 3.8v7.2c0 1.6 0 2.1-1.3 2.3h-.2c-.4 0-1.2.1-1.2 1 0 .4.2.8.9.8.6 0 1.2 0 1.8-.1.6 0 1.2-.1 1.7-.1s1.1 0 1.6.1c.6 0 1.2.1 1.8.1.5 0 .9-.3.9-.9.1-.7-.8-.8-1.2-.8zM50.3 52.9c0-1.4.9-2.5 2.1-2.5 1.2 0 2 1.2 2 2.4 0 1.5-.8 2.5-2 2.5-1.3 0-2.1-1-2.1-2.4zM54 72.7v.7c0 1.6 0 2.1 1.3 2.3h.2c.4 0 1.2.1 1.2.9 0 .5-.3.9-.9.9-.6 0-1.2 0-1.8-.1-.6 0-1.1-.1-1.6-.1-.6 0-1.2 0-1.7.1-.6 0-1.2.1-1.7.1-.7 0-.9-.4-.9-.8 0-.9.9-1 1.2-1h.2c1.3-.1 1.3-.7 1.3-2.3v-8.5c0-1.6-.1-2.1-.3-2.2-.1-.1-.3-.2-.8-.2h-.5c-.5 0-.9-.3-.9-.7 0-.7.6-.9 1-1h.1c.8-.3 2.3-1.3 2.9-2l.1-.1c.2-.2.4-.5.9-.5.3 0 .4.1.5.2.2.1.2.4.2.6v13.7zM76.3 58.7c-.2-.2-.4-.2-.6-.2h-5.5c-.2 0-1 0-1 .8 0 .9 1.1.9 1.4.9.2 0 1 0 1 .7 0 .3-.2.9-.3 1.3 0 .1-.1.2-.1.3 0 0-2.8 6.9-3.9 9.6-.9-2.6-3.4-9.2-3.4-9.2l-.1-.1c-.2-.4-.5-1.4-.5-1.8 0-.6.6-.7.9-.7h.1c.3 0 .8 0 1.1-.2.1-.1.2-.3.2-.5 0-.3-.1-.5-.2-.6-.2-.2-.6-.2-.8-.2H57.8c-.2 0-.5 0-.7.2-.1-.1-.1.1-.1.3 0 .6.4.9 1.1.9 1.2.1 1.3.5 1.8 1.8l.1.3 5.3 14.3.2.5c.1.4.4.7.7.7.5 0 .8-.6.9-1v-.1L72.4 64c.1-.2.2-.4.2-.6.6-1.4 1.2-3 2.5-3.2h.1c.3 0 1.2-.1 1.2-.9.1-.1.1-.4-.1-.6zM92.4 72.5c-.3 0-.5.2-.9.6-.7.7-2.1 2.1-4.5 2.1-4.4 0-6.7-4.1-6.7-8.2 0-.6.1-.7.1-.8.1-.1.4-.1.8-.1H92.5c.2 0 .9-.1.9-1.1 0-1.4-.6-3.3-1.4-4.4-1.3-1.6-3.4-2.6-5.7-2.6-2.6 0-5 1-6.9 2.8-1.9 1.8-2.8 4-2.8 7.1 0 5.5 3.9 9.8 8.8 9.8 2.5 0 4.3-.7 6.1-2.4 1.4-1.3 1.5-1.8 1.5-2.1.1-.3-.2-.7-.6-.7zm-11-10.4c1-1.6 2.7-2.5 4.4-2.5.9 0 2.1.2 2.9 1.1.5.6.9 1.5.9 2.1 0 .7-.3 1-1 1.2-1 .3-3 .3-4.2.3h-3.2c-.1 0-.6 0-.6-.1v-.1c-.1-.3.5-1.5.8-2zM105.5 58.3c-2 0-3.4 1.8-4.1 2.8V59c0-.2 0-.6-.2-.8-.1-.1-.3-.2-.5-.2-.4 0-.7.3-.9.5l-.1.1c-.5.7-2.1 1.7-2.9 2h-.1c-.3.1-1 .3-1 1 0 .4.3.7.9.7h.5c.4 0 .7.1.8.2.1.1.3.6.3 2.2v8.5c0 1.6 0 2.1-1.3 2.3h-.2c-.4 0-1.2.1-1.2 1 0 .4.2.8.9.8.6 0 1.2 0 1.7-.1.6 0 1.2-.1 1.7-.1s1.1 0 1.6.1c.6 0 1.2.1 1.8.1.5 0 .9-.3.9-.9 0-.8-.9-.9-1.2-.9h-.2c-1.3-.1-1.3-.7-1.3-2.3v-7.4c0-1.5 0-2.4.8-3.7.4-.5.9-1.3 1.5-1.3.3 0 .4.2.7.6.3.4.8 1 1.6 1 1.2 0 2-.8 2-2.1 0-1-1-2-2.5-2zM109.6 71.9c0-.4.1-1.3.9-1.3s1 .9 1.1 1.8c.3 1.7.7 3.8 3.7 3.8 2 0 4.1-1.3 4.1-3.6 0-1.9-1.3-2.8-3.3-3.5l-.3-.1c-2.4-.8-5.6-2-5.6-5.4 0-1.6.7-3 2.1-4.1 1.2-1 2.7-1.4 4.6-1.4 1 0 3 .3 4 .7.8.4.7 1.2.7 1.9V61.3c.1.8.1 1.6-.3 2-.1.1-.3.2-.5.2-.6 0-.8-.6-1.1-1.2-.4-1.1-1-2.6-3.4-2.6-1.2 0-3 .9-3 2.6 0 1.9 1.7 2.6 3.8 3.3 2.6 1 5.5 2.1 5.5 6 0 4-3.8 6.4-7.4 6.4-1.3 0-3.5-.5-4.9-1.3-.7-.4-.7-1-.7-1.6v-.2c-.1-.2 0-2.9 0-3zM129.5 55.3c1.2 0 2-1 2-2.5 0-1.2-.7-2.4-2-2.4-1.2 0-2.1 1.1-2.1 2.5.1 1.4 1 2.4 2.1 2.4zM132.6 75.7h-.2c-1.3-.1-1.3-.7-1.3-2.3V59c0-.2 0-.6-.2-.8-.1-.1-.3-.2-.5-.2-.4 0-.7.3-.9.5l-.1.1c-.5.7-2.1 1.7-2.9 2h-.1c-.3.1-1 .3-1 1 0 .4.3.7.9.7h.5c.4 0 .7.1.8.2.1.1.3.6.3 2.2v8.5c0 1.6 0 2.1-1.3 2.3h-.2c-.4 0-1.2.1-1.2 1 0 .4.2.8.9.8.6 0 1.2 0 1.7-.1.6 0 1.2-.1 1.7-.1s1.1 0 1.6.1c.6 0 1.2.1 1.8.1.5 0 .9-.3.9-.9.1-.6-.8-.7-1.2-.7zM144.9 74.7c0-.3-.3-.7-.7-.7-.3 0-.4.2-.8.4-.4.4-1.1 1-1.9 1-.4 0-.7-.1-1-.4-.8-.8-.8-2.7-.8-3.9V60.7c0-.4.1-.5.1-.5h3.4c.4 0 .7 0 .9-.2.2-.2.3-.6.3-.9 0-.3 0-1-.8-1H139.8v-3.3c0-.8-.5-.9-.7-.9-.5 0-.7.5-.8.6-.8 1.9-1.8 2.8-3.4 4 0 0-.1 0-.1.1-.2.2-.5.4-.5.9 0 .2.1.4.2.5.3.3.8.3 1.2.2h.5v11.5c0 1.6 0 3.4.9 4.8.7.9 1.8 1.4 3 1.4 1.3 0 2.6-.6 3.7-1.7.5-.2 1.1-.9 1.1-1.5zM164.3 58.5h-5.8c-.5 0-.9.4-.9.9 0 .7.9.7 1.3.7 1 0 1.5.4 1.5 1.1 0 .4-.3 1.1-.4 1.5v.1s-2.7 7-3.7 9.7c-1-2.7-3.7-9.9-3.7-9.9v-.1c-.2-.5-.4-1-.4-1.4 0-.8 1.3-.8 1.5-.8.9 0 1.3-.2 1.3-.7 0-.6-.5-.9-.9-.9H147c-.7 0-1.1.4-1.1.9 0 .7.9.7 1.3.7.9 0 1.3.9 1.8 2.2l.2.4s4.8 12.8 4.8 12.7c0 .1.1.3.2.4.2.4.3.8.3 1.2 0 .3-.1.5-.2.8 0 .1-.1.2-.1.2l-1.2 3.2c0 .1-.1.2-.1.3-.2.5-.3.8-.6.9-.4.1-.8.1-1.2.1h-.3c-1.6 0-1.6 1.4-1.6 2 0 .5.1.9.4 1.2.5.5 1.3.5 2 .5h.1c1.6 0 1.8-.4 2.2-1.8v-.1l7.4-19.4c.3-.8 1.3-3.3 2-4.3.3-.4 1-.7 1.3-.8h.2c.4 0 1-.1 1-.6-.5-.5-.9-.9-1.5-.9z"/><path class="st1" d="M233.7 51.4h-58.4V95.7c.9 10.5 11.5 28 29 33.4l.3.1h.4l.3-.1c17.4-5.4 28-22.9 28.9-33.6V51.5h-.5z"/><path class="st2" d="M204.7 57.5h9.8v9.2h-8s-.6-1.3-1.8-1.3c-1.1 0-1.8 1.3-1.8 1.3h-8v-9.2h9.8"/><path class="st3" d="M204.5 68.9h27.9v26.7c-.8 9.2-10.4 26.7-27.8 32.1-17.5-5.4-27.1-22.9-27.9-32.1V68.9h27.9-.1zM185.9 66.4h.7c-.2-.1-.6-.3-.6-1 0-1 .2-1.8.2-1.8l2.4.2-.5-.8 2.5-2.4-.7-.2.4-1.7-1.6.3-.3-.8-1.1 1.2.3-2.9-.9.7-1.1-2.1-1.1 2.1-.9-.7.3 2.9-1.1-1.2-.3.8-1.6-.3.4 1.7-.7.2 2.5 2.4-.5.8 2.4-.2s.3.8.2 1.8c0 .7-.4.9-.6 1h1.3zM223.1 66.4h-.7c.2-.1.6-.3.6-1 0-1-.2-1.8-.2-1.8l-2.4.2.5-.8-2.5-2.4.7-.2-.4-1.7 1.6.3.3-.8 1.1 1.2-.3-2.9.9.7 1.1-2.1 1.1 2.1.9-.7-.3 2.9 1.1-1.2.3.8 1.6-.3-.4 1.7.7.2-2.5 2.4.5.8-2.4-.2s-.3.8-.2 1.8c0 .7.4.9.6 1h-1.3zM204.7 64.4c1.1-1.2 4.2.7 5.2.8.5.1 2.9 0 2.9 0V56h-1.2s-1.7.1-2.6-.3c-.9-.4-3.2-1.2-4.3.4-1.1-1.6-3.4-.8-4.3-.4-.9.4-2.6.3-2.6.3h-1.2v9.2h2.9c1-.1 4.1-1.9 5.2-.8z"/><path class="st2" d="M204.4 64.2c.1.1.2.1.3.2.1-.1.2-.2.3-.2v-8.4c-.1.1-.2.3-.3.4-.1-.1-.2-.3-.3-.4v8.4zM200.8 80.3s2.8.2 3.1-2.2c0 0 .2 1.8.8 1.8.6 0 .6-1.9.6-1.9 1 2.6 3.4 2.8 3.4 2.8-2.1-1.4-1.9-5.2-1.9-5.5.1-1.9 1.8-1.7 1.9-2.8.2-1.6-1.7-1.2-1.7-1.2s.8 0 .9.4c.3.9-1.2 1-1.2 1-1.9.5-2.5-.6-3.2-.7-.7-.1-.8.3-.9.5-.1.2-3 .3-3.6 1-.7.7-.6 1.6-.1 2.1 0 0 .3-1 1.4-1.1 1.1 0 2.9 1.4 3.3 2.2-.5 0-4.6.3-5.1-.1-.3-.2-.7-.8-.7-1.1 0 0-.2 1.1.3 1.4.5.3.6.3.9.3.3 0 4.3-.1 4.7-.1-.1.3 0 1.1-.9 1.1h-3.3s-.1.8 1.2.5c.3-.1 1.1-.3 1.4.2 0 .1.6 1.2-1.3 1.4zM202.9 109c-1.2.8-3.1.1-3.1.1s.1.5-1.7 1.3c-2.7 1.1-5.5 3.9-1.8 8 0 0-1.5-4.7.8-5.8 0 0 2 2 5-2 .5-.7.8-1.6.8-1.6zM196.3 92.5c-.1 1.2-.3 1.3-1.4 1.8 0 0-.4-.4-.6-.8-.7-1.3.5-3.3.5-3.3-1.3 1.5-3.1 1-3.1 1 .1-1.3 1.9-2.5 1.9-2.5-1.6.3-2.9-.6-2.9-.6.5-.9 2.2-1.9 2.2-1.9-1.7-.1-2.8-1.1-2.8-1.1.5-.7 2.4-1.6 2.4-1.6-.9-.5-1.8-2.1-1.8-2.1 1.3-.7 2.7-.5 2.7-.5-2.3-1.7.2-6.4.2-6.4-.4 7 5.1 5.2 4.6 8.8-.3 3-3.6.8-3.6.8-.6 4.1 1.8 4.5 1.8 4.5l-.2 2c0 1.2.1 1.3.1 1.9z"/><path class="st2" d="M189.1 102.7c7.5-.2 8.8-5.9 8.8-5.9-.7-1.1-.8-1.6-.8-1.6l-.1-.2c-.5.5-2.4 1.2-2.4 1.2s-1.1-.9-1.4-1.3c-.7-1-.8-1.8-.8-1.8-1.3 0-2.4-1.1-2.4-1.1-.1-1.2.4-2.1.4-2.1-.9-.4-1.8-1.3-1.8-1.3.6-1.3 1-1.7 1-1.7-1.4-1.1-1.5-1.8-1.5-1.8.4-1 1.7-1.9 1.7-1.9-.6-.8-1.1-2.2-1.1-2.2 1-1 2-1.4 2-1.4-.2-.6-.1-1.2-.1-1.8 0 0-8.6-4.5-9.5-7.4 0 0-.4 2.6-.2 4.2.1 1.5 2.4 3.9 7.9 7.6-3.4-.5-8-2.3-9-4.2 0 0 0 2.6.6 4.2.5 1.3 2.9 2.2 8.3 4.8-2.7 1.5-7.4-.2-8.8-1.5 0 0 .8 2.3 1.6 3.7.6.9 2.8 2.4 8 1.6-1.9 2.4-5.6 4.2-8.2 3.1 0 0 .3 2.3 1.8 3 1.1.5 3.5.8 7.3-2.1-2.3 5.7-7.9 3.9-7.9 3.9s1.3 2.3 2.8 3c1.3.7 4 .1 8.4-4.6 0 0-.3 4.2-4.6 5.6zM198.8 98.4s1.5 2.1 1.9 3.4c0 0-2.9 2.5-2.4 5.3 0 0-1-2-.3-3.5.1-.1.4-1 .4-1s-2.5 1.2-4.2.3c0 0 1.8.2 3.8-2.9 1-1.7.8-1.6.8-1.6z"/><path class="st2" d="M189.1 106.9c-.3 0-1.7-.5-2 .5-.4 1.2 1 1.7 1.7 1 .8-.7 2.1-.7 2.4-.2.1.2.3.7-.8 1.6-.3.3-2.2 1.4-.9 2.7.5.4 1.7.3 2-1.5.2-1.3.6-1.9 1.1-2.1.2-.1 1-.3 1.4 0 .1.1.4.3.4.3.7.5 1.5-.1 1.4-.8-.2-.8-.9-.6-1.4-.4-.4.2-.8 0-.8 0-.3-.2-.4-.5.1-.8 2.3-1.1 2.7-2.3 2.7-2.3-1.1.1-2-.2-2-.2s-2 2.7-3.6 2c-.5-.2-.7-1.1-.7-1.4 0-.8-.9-1.2-1.4-.7-.5.6.1 1.1.6 1.3.3.1.7.5.6.8-.3.3-.6.2-.8.2zM188.3 103.9s-.4.2-.5.6c0 0-.8-.6-1.4.3.1 0 .2-1.5 1.9-.9zM186.3 107.7s-.2.4.2 1c0 0-1 .4-.3 1.7 0 0-1.5-1.4.1-2.7zM188.4 112.3s0 .5.5.9c0 0-.8.7.3 1.7 0 0-1.9-.8-.8-2.6zM196.4 109.2c.3.1.5.4.4 1.1 0 0 1-1-.4-1.8l-.1-.1s.2.4-.1.7c0 0 .1 0 .2.1zM212.6 109.1c-.3.1-.5.4-.4 1.1 0 0-1-1 .4-1.8l.1-.1s-.2.4.1.7c0 .1 0 .1-.2.1zM204.6 82.1c.7-.2 1.1-.7 1.1-.7.5.6 1.9 1 2.6 1 1.7 4.5 5.4 7.2 2 13.3-3.6 6.3-6.2 7.2-1.2 11.5 0 0-3.2.9-3.9-1.9 0 0 .2 3-.6 3.8-.7-.8-.6-3.8-.6-3.8-.7 2.8-3.9 1.9-3.9 1.9 5-4.3 2.4-5.2-1.2-11.5-3.4-6.1.3-8.8 2-13.3.8-.1 2.1-.4 2.7-1 0-.1.3.5 1 .7zM206.3 109c1.2.8 3.1.1 3.1.1s0 .5 1.7 1.3c2.7 1.1 5.5 3.9 1.8 8 0 0 1.5-4.7-.8-5.8 0 0-2 2-5-2-.5-.7-.8-1.6-.8-1.6zM212.9 92.5c.1 1.2.3 1.3 1.4 1.8 0 0 .4-.4.6-.8.7-1.3-.5-3.3-.5-3.3 1.3 1.5 3.1 1 3.1 1-.1-1.3-1.9-2.5-1.9-2.5 1.6.3 2.9-.6 2.9-.6-.5-.9-2.2-1.9-2.2-1.9 1.7-.1 2.8-1.1 2.8-1.1-.5-.7-2.4-1.6-2.4-1.6.9-.5 1.8-2.1 1.8-2.1-1.3-.7-2.7-.5-2.7-.5 2.3-1.7-.2-6.4-.2-6.4.4 7-5.1 5.2-4.6 8.8.3 3 3.6.8 3.6.8.6 4.1-1.8 4.5-1.8 4.5l.2 2c0 1.2-.1 1.3-.1 1.9z"/><path class="st2" d="M220.1 102.7c-7.5-.2-8.8-5.9-8.8-5.9.7-1.1.8-1.6.8-1.6l.1-.3c.5.5 2.4 1.2 2.4 1.2s1.1-.9 1.4-1.3c.7-1 .8-1.8.8-1.8 1.3 0 2.4-1.1 2.4-1.1.1-1.2-.4-2.1-.4-2.1.9-.4 1.8-1.3 1.8-1.3-.6-1.3-1-1.7-1-1.7 1.4-1.1 1.5-1.8 1.5-1.8-.4-1-1.7-1.9-1.7-1.9.6-.8 1.1-2.2 1.1-2.2-1-1-2-1.4-2-1.4.2-.6.1-1.2.1-1.8 0 0 8.6-4.5 9.5-7.4 0 0 .4 2.6.2 4.2-.1 1.5-2.4 3.9-7.9 7.6 3.4-.5 8-2.3 9-4.2 0 0 0 2.6-.6 4.2-.5 1.3-2.9 2.2-8.3 4.8 2.7 1.5 7.4-.2 8.8-1.5 0 0-.8 2.3-1.6 3.7-.6.9-2.8 2.4-8 1.6 1.9 2.4 5.6 4.2 8.2 3.1 0 0-.3 2.3-1.8 3-1.1.5-3.5.8-7.3-2.1 2.3 5.7 7.9 3.9 7.9 3.9s-1.3 2.3-2.8 3c-1.3.7-4 .1-8.4-4.6 0 .1.3 4.3 4.6 5.7zM210.4 98.4s-1.5 2.1-1.9 3.4c0 0 2.9 2.5 2.4 5.3 0 0 1-2 .3-3.5-.1-.1-.4-1-.4-1s2.5 1.2 4.2.3c0 0-1.8.2-3.8-2.9-1-1.7-.8-1.6-.8-1.6z"/><path class="st2" d="M220.1 106.9c.3 0 1.7-.5 2 .5.4 1.2-1 1.7-1.7 1-.8-.7-2.1-.7-2.4-.2-.1.2-.3.7.8 1.6.4.3 2.2 1.4.9 2.7-.5.4-1.7.3-2-1.5-.2-1.3-.6-1.9-1.1-2.1-.2-.1-1-.3-1.4 0-.1.1-.4.3-.4.3-.7.5-1.5-.1-1.4-.8.2-.8.9-.6 1.4-.4.4.2.8 0 .8 0 .3-.2.4-.5-.1-.8-2.3-1.1-2.7-2.3-2.7-2.3 1.1.1 2-.2 2-.2s2 2.7 3.6 2c.5-.2.7-1.1.7-1.4 0-.8.9-1.2 1.4-.7.5.6-.1 1.1-.6 1.3-.3.1-.7.5-.6.8.3.3.6.2.8.2zM220.9 103.9s.4.2.5.6c0 0 .8-.6 1.4.3-.1 0-.2-1.5-1.9-.9zM222.9 107.7s.2.4-.2 1c0 0 1 .4.3 1.7 0 0 1.5-1.4-.1-2.7zM220.8 112.3s0 .5-.5.9c0 0 .8.7-.3 1.7 0 0 1.9-.8.8-2.6zM204.6 111.3c.2-.1.5-.2.7-.4 0 0 1.9 4.5 6.2 4.1 0 0-.2 1-2 1.1 0 0 2.9 1.4 1.2 2.7-1.1.9-2-1.6-2-1.6s-.1 2.3-2.1 2.3c0 0 3-1.7-.1-5.8.3 2.8-.7 5.5-2 5.5s-2.3-2.6-2-5.5c-3.1 4.1-.1 5.8-.1 5.8-2 0-2.1-2.3-2.1-2.3s-.9 2.5-2 1.6c-1.7-1.4 1.2-2.7 1.2-2.7-1.7-.1-2-1.1-2-1.1 4.3.5 6.2-4.1 6.2-4.1.5.3.7.3.9.4z"/><path class="st3" d="M204.2 73.7v-.1l-.2-.6v-.1h-.1l-2.3.9 1.2-.1c0 .1-.1.2-.1.2 0 .3.2.5.5.5s.5-.2.5-.5c0-.1 0-.2-.1-.3h.4l.2.1zM210.6 89.9c-.4-.8-.9-1.1-1.3-1.2 0-.1-.1-.2-.2-.4-.5-.8-1.4-.9-2-.6-.2.1-.4.2-.5.2l.1-.2c.1-.1.2-.3.3-.6.2-.6.1-1.5-.6-2-.1-.1-.2-.1-.4-.2-.1-.4-.4-.9-1.2-1.3l-.2-.1-.2.1c-.8.4-1.1.9-1.2 1.3-.1 0-.2.1-.4.2-.8.5-.9 1.4-.6 2 .1.4.2.5.3.6l.2.2c-.1-.1-.3-.1-.5-.2-.6-.2-1.5-.1-2 .6-.1.1-.1.2-.2.4-.4.1-.9.4-1.3 1.2l-.1.2.1.2c.4.8.9 1.1 1.3 1.2 0 .1.1.2.2.4.5.8 1.4.9 2 .6.4-.1.5-.2.6-.3l.2-.2v2.1l-.2-.2-.3.4c-.1.1-.2.3-.3.6-.2.6-.1 1.5.6 2 .1.1.2.1.4.2.1.4.4.9 1.2 1.3l.2.1.2-.1c.8-.4 1.1-.9 1.2-1.3.1 0 .2-.1.4-.2.8-.5.9-1.4.6-2-.1-.4-.2-.5-.3-.6l-.3-.4-.2.2V92l.2.2c.1.1.3.2.6.3.6.2 1.5.1 2-.6.1-.1.1-.2.2-.4.4-.1.9-.4 1.3-1.2l.1-.2v-.2z"/><path class="st2" d="M209.3 90.1s-.5-.6-1.1-.5c.1-.2.1-.4-.1-.7-.3-.4-.6-.3-.8-.3h-.1l.1.1s.1.1.1.2 0 .3-.2.5c-.1.1-.5.1-.6.1h-1.5v-2.2c0-.1 0-.4.1-.6.2-.2.4-.3.5-.2.1 0 .2.1.2.1l.1.1v-.1c.1-.2.1-.6-.3-.8-.2-.2-.5-.1-.7-.1.2-.6-.5-1.1-.5-1.1s-.6.5-.5 1.1c-.2-.1-.4-.1-.7.1-.4.3-.3.6-.3.8v.1l.1-.1s.1-.1.2-.1.3 0 .5.2c.1.1.1.4.1.5v2.2h-1.5c-.1 0-.4 0-.6-.1-.2-.2-.3-.4-.2-.5 0-.1.1-.2.1-.2l.1-.1h-.1c-.2-.1-.6-.1-.8.3-.2.2-.1.5-.1.7-.6-.2-1.1.5-1.1.5s.5.6 1.1.5c-.1.2-.1.4.1.7.3.4.6.3.8.3h.1l-.1-.1s-.1-.1-.1-.2 0-.3.2-.5c.1-.1.4-.1.5-.1h1.5v4c0 .1 0 .4-.1.5-.2.2-.4.3-.5.2-.1 0-.2-.1-.2-.1l-.1-.1v.1c-.1.2-.1.6.3.8.2.2.5.1.7.1-.2.6.5 1.1.5 1.1s.6-.5.5-1.1c.2.1.4.1.7-.1.4-.3.3-.6.3-.8v-.1l-.1.1s-.1.1-.2.1-.3 0-.5-.2c-.1-.1-.1-.5-.1-.6v-4h1.5c.1 0 .4 0 .5.1.2.2.3.4.2.5 0 .1-.1.2-.1.2l-.1.1h.1c.2.1.6.1.8-.3.2-.2.1-.5.1-.7.9.4 1.3-.2 1.3-.3 0 .1.1 0 0 0z"/><path class="st0" d="M4.3 100.7l.2.2c.7.6 1.5 1.1 2.4 1.1.4 0 1-.2 1-.7 0-.5-.5-.6-.9-.7l-.8-.2c-1.5-.3-2.8-1.3-2.8-3.1 0-2.8 2.3-4.4 4.6-4.4 1.2 0 2.3.3 3.4 1l-1 3c-.7-.5-1.4-.9-2.2-.9-.3 0-.8.1-.8.6 0 .4.5.5.8.6l.8.3c1.6.4 2.8 1.4 2.8 3.4 0 2.8-2.3 4.2-4.6 4.2-1.3 0-2.9-.4-4.1-1.1l1.2-3.3zM20.4 96.8c1.2 0 2 1 2 2.3 0 1.3-.8 2.3-2 2.3s-2-.9-2-2.3c0-1.3.7-2.3 2-2.3zm0-3.9c-3.2 0-5.9 2.4-5.9 6.1 0 3.8 2.6 6 5.9 6 3.2 0 5.9-2.3 5.9-6-.1-3.7-2.7-6.1-5.9-6.1zM37.3 97.9c-.6-.6-1.4-1.2-2.3-1.2-1.2 0-2.1 1-2.1 2.3 0 1.3 1 2.3 2.1 2.3.9 0 1.6-.4 2.2-1.1l-.1 4.4c-.6.3-2 .5-2.7.5-3 0-5.4-2.6-5.4-6s2.4-6.2 5.5-6.2c.9 0 1.8.2 2.6.5l.2 4.5zM40.7 93.1h3.8v11.8h-3.8V93.1zM52.3 100.6L53 97h.1c.1.5.1 1 .3 1.5l.4 2.1h-1.5zm-.7 2.8h2.9l.4 1.5H59l-3.8-11.8h-4.3l-3.7 11.8h4.1l.3-1.5zM61.7 93.1h3.8v8h3.2v3.8h-7.1V93.1zM80.1 100.7l.2.2c.7.6 1.5 1.1 2.4 1.1.4 0 1-.2 1-.7 0-.5-.5-.6-.9-.7l-.8-.2c-1.5-.3-2.8-1.3-2.8-3.1 0-2.8 2.3-4.4 4.6-4.4 1.2 0 2.3.3 3.4 1l-1 3c-.7-.5-1.4-.9-2.2-.9-.3 0-.8.1-.8.6 0 .4.5.5.8.6l.9.2c1.6.4 2.8 1.4 2.8 3.4 0 2.8-2.3 4.2-4.6 4.2-1.3 0-2.9-.4-4.1-1.1l1.1-3.2zM98.5 97.9c-.6-.6-1.4-1.2-2.3-1.2-1.2 0-2.1 1-2.1 2.3 0 1.3 1 2.3 2.1 2.3.9 0 1.6-.4 2.2-1.1l-.1 4.4c-.6.3-2 .5-2.7.5-3 0-5.4-2.6-5.4-6s2.4-6.2 5.5-6.2c.9 0 1.8.2 2.6.5l.2 4.5zM101.8 93.1h3.8v11.8h-3.8V93.1zM109.3 93.1h7.1v3.2h-3.2v1.1h3v3.1h-3v1.1h3.4v3.2h-7.2V93.1zM120 93.1h3.7l3.5 6.5h.1c-.2-1-.3-2-.3-3v-3.5h3.7v11.8H127l-3.4-6.2h-.1c.1.8.2 1.6.2 2.4v3.8H120V93.1zM142 97.9c-.6-.6-1.4-1.2-2.3-1.2-1.2 0-2.1 1-2.1 2.3 0 1.3 1 2.3 2.1 2.3.9 0 1.6-.4 2.2-1.1l-.1 4.4c-.6.3-2 .5-2.7.5-3 0-5.4-2.6-5.4-6s2.4-6.2 5.5-6.2c.9 0 1.8.2 2.6.5l.2 4.5zM145.2 93.1h7.1v3.2h-3.2v1.1h3v3.1h-3v1.1h3.4v3.2h-7.2V93.1zM156.6 100.7l.2.2c.7.6 1.5 1.1 2.4 1.1.4 0 1-.2 1-.7 0-.5-.5-.6-.9-.7l-.8-.2c-1.5-.3-2.8-1.3-2.8-3.1 0-2.8 2.3-4.4 4.6-4.4 1.2 0 2.3.3 3.4 1l-1 3c-.7-.5-1.4-.9-2.2-.9-.3 0-.8.1-.8.6 0 .4.5.5.8.6l.9.2c1.6.4 2.8 1.4 2.8 3.4 0 2.8-2.3 4.2-4.6 4.2-1.3 0-2.9-.4-4.1-1.1l1.1-3.2z"/></svg>