<svg xmlns="http://www.w3.org/2000/svg" id="Layer_1" enable-background="new 0 0 25 25" viewBox="0 0 25 25" x="0px" y="0px" width="25px" height="25px" xmlns:xml="http://www.w3.org/XML/1998/namespace" xml:space="preserve" version="1.1">
<g>
	<g opacity="0.35">
		<path d="M 7.5 20.7 V 9.4 l 10 -4.935 V 15.1 L 7.5 20.7 Z M 8.9 10.2 v 8.1 v -7.7 l 6.8 3.9 l 0.5 -0.3 V 6.1 L 8.9 10.2 Z M 10.253 12.5 v 3.557 l 3.016 -1.828 L 10.253 12.5 Z" />
	</g>
	<g opacity="0.35">
		<path d="M 12.5 25 C 5.6 25 0 19.4 0 12.5 C 0 5.6 5.6 0 12.5 0 C 19.4 0 25 5.6 25 12.5 C 25 19.4 19.4 25 12.5 25 Z M 12.5 1.4 c -6.1 0 -11.1 5 -11.1 11.1 c 0 6.1 5 11.1 11.1 11.1 c 6.1 0 11.1 -5 11.1 -11.1 C 23.6 6.4 18.6 1.4 12.5 1.4 Z M 12.4 23.4 c -6 0 -10.9 -4.9 -10.9 -10.9 S 6.4 1.6 12.4 1.6 c 6 0 10.9 4.9 10.9 10.9 C 23.3 18.6 18.4 23.4 12.4 23.4 Z M 12.4 3 c -5.3 0 -9.5 4.3 -9.5 9.5 c 0 5.3 4.3 9.5 9.5 9.5 c 5.3 0 9.5 -4.3 9.5 -9.5 C 22 7.3 17.7 3 12.4 3 Z" />
	</g>
	<path fill="#ffffff" d="M 8 9.8 v 9.7 l 9 -4.8 V 5.28 L 8 9.8 Z M 10 11.8 l 4.1 2.4 L 10 16.6 V 11.8 Z" />
	<path fill="#ffffff" d="M 12.6 0.6 c -6.6 0 -12 5.3 -12 11.9 c 0 6.6 5.4 11.9 11.9 11.9 c 6.6 0 11.899 -5.4 11.899 -11.9 C 24.5 5.899 19.2 0.6 12.6 0.6 Z M 12.5 2.399 c 5.6 0 10.1 4.5 10.1 10.101 c 0 5.6 -4.5 10.1 -10.1 10.1 c -5.6 0 -10.1 -4.5 -10.1 -10.1 C 2.4 7 6.9 2.399 12.5 2.399 Z" />
</g>
</svg>