<svg xmlns="http://www.w3.org/2000/svg" id="Layer_1" enable-background="new 0 0 25 25" viewBox="0 0 25 25" x="0px" y="0px" width="25px" height="25px" xmlns:xml="http://www.w3.org/XML/1998/namespace" xml:space="preserve" version="1.1">
<g>
	<path opacity="0.35" fill="#231f20" d="M 22.3 15.3 l -9.8 -9.8 l -9.8 9.8 L 0 12.7 L 12.5 0.2 L 25 12.7 L 22.3 15.3 Z M 2 12.7 l 0.7 0.7 l 9.8 -9.8 l 9.8 9.8 l 0.7 -0.7 L 12.5 2.1 L 2 12.7 Z" />
	<path opacity="0.35" fill="#231f20" d="M 21.3 24.8 h -6.9 v -5 h -3.9 v 5 H 3.7 V 14.4 l 8.8 -8.8 l 8.8 8.8 V 24.8 Z M 15.8 23.5 H 20 v -9.1 l -7.5 -7.3 l -7.5 7.3 v 9.1 h 4.1 v -5 h 6.6 V 23.5 Z" />
	<polygon fill="#ffffff" points="12.5,4.5 22.3,14.3 24,12.7 12.5,1.1 1,12.7 2.7,14.3" />
	<polygon fill="#ffffff" points="12.5,6.1 4.4,14.1 4.4,24.1 9.9,24.1 9.9,19.2 15.1,19.2 15.1,24.1 20.6,24.1 20.6,14.1" />
</g>
</svg>