<?xml version="1.0" encoding="utf-8"?>
<!-- Generator: Adobe Illustrator 21.1.0, SVG Export Plug-In . SVG Version: 6.00 Build 0)  -->
<svg version="1.1" id="Layer_1" xmlns="http://www.w3.org/2000/svg" xmlns:xlink="http://www.w3.org/1999/xlink" x="0px" y="0px"
	 viewBox="0 0 61.7 81" style="enable-background:new 0 0 61.7 81;" xml:space="preserve">
<style type="text/css">
	.st0{fill:#FFFFFF;}
	.st1{fill:#8E979D;}
	.st2{fill:#7A003C;stroke:#7A003C;stroke-width:0.3;}
	.st3{fill:#FEC057;stroke:#FEC057;stroke-width:0.3;}
</style>
<path class="st0" d="M30.1,80.8C12,75.2,1,57,0,46c0-0.2,0-0.2,0-42.9V2.2V1.3V0.4V0h0.3h0.9h0.9H3h27.8h0.1h27.8h0.9h0.9h0.9h0.3
	v0.3v0.9v0.9V3v42.7c-1,11.1-11.9,29.5-30,35.1L30.8,81L30.1,80.8z"/>
<path class="st1" d="M60.1,1.6h-0.3h-0.9H31.1H31H3.2h-1H1.9H1.6v0.3v0.3v0.9c0,28.3,0,42.7,0,42.7c0.9,10.5,11.5,28,29,33.4
	l0.3,0.1H31h0.1h0.1h0.1l0.3-0.1c17.4-5.4,28-22.9,28.9-33.6V3.2V2.3V2V1.7h-0.4V1.6z"/>
<path class="st2" d="M31.1,7.6h9.8v9.2h-8c0,0-0.6-1.3-1.8-1.3c-1.1,0-1.8,1.3-1.8,1.3h-8V7.6L31.1,7.6"/>
<g>
	<path class="st3" d="M30.9,19.1h27.9v26.7C58,55,48.4,72.5,31,77.9C13.5,72.5,3.9,55,3.1,45.8V19.1H30.9L30.9,19.1z"/>
	<path class="st3" d="M12.3,16.6H13c-0.2-0.1-0.6-0.3-0.6-1c0-1,0.2-1.8,0.2-1.8L15,14l-0.5-0.8l2.5-2.4l-0.7-0.2l0.4-1.7l-1.6,0.3
		l-0.3-0.8l-1.1,1.2L14,6.7l-0.9,0.7L12,5.3l0,0l-1.1,2.1L10,6.7l0.3,2.9L9.2,8.4L8.9,9.2L7.3,8.9l0.4,1.7L7,10.8l2.5,2.4L9,14
		l2.4-0.2c0,0,0.3,0.8,0.2,1.8c0,0.7-0.4,0.9-0.6,1H12.3z"/>
	<path class="st3" d="M49.5,16.6h-0.7c0.2-0.1,0.6-0.3,0.6-1c0-1-0.2-1.8-0.2-1.8L46.8,14l0.5-0.8l-2.5-2.4l0.7-0.2l-0.4-1.7
		l1.6,0.3L47,8.4l1.1,1.2l-0.3-2.9l0.9,0.7l1.1-2.1l0,0l1.1,2.1l0.9-0.7l-0.3,2.9l1.1-1.2l0.3,0.8l1.6-0.3l-0.4,1.7l0.7,0.2
		l-2.5,2.4l0.5,0.8l-2.4-0.2c0,0-0.3,0.8-0.2,1.8c0,0.7,0.4,0.9,0.6,1H49.5z"/>
	<path class="st3" d="M31.1,14.6c1.1-1.2,4.2,0.7,5.2,0.8c0.5,0.1,2.9,0,2.9,0V6.2H38c0,0-1.7,0.1-2.6-0.3c-0.9-0.4-3.2-1.2-4.3,0.4
		c-1.1-1.6-3.4-0.8-4.3-0.4c-0.9,0.4-2.6,0.3-2.6,0.3H23v9.2c0,0,2.4,0,2.9,0C26.9,15.3,30,13.5,31.1,14.6z"/>
</g>
<path class="st2" d="M30.8,14.4c0.1,0.1,0.2,0.1,0.3,0.2c0.1-0.1,0.2-0.2,0.3-0.2V6c-0.1,0.1-0.2,0.3-0.3,0.4
	C31,6.3,30.9,6.1,30.8,6V14.4z"/>
<path class="st2" d="M27.2,30.5c0,0,2.8,0.2,3.1-2.2c0,0,0.2,1.8,0.8,1.8s0.6-1.9,0.6-1.9c1,2.6,3.4,2.8,3.4,2.8
	c-2.1-1.4-1.9-5.2-1.9-5.5c0.1-1.9,1.8-1.7,1.9-2.8c0.2-1.6-1.7-1.2-1.7-1.2s0.8,0,0.9,0.4c0.3,0.9-1.2,1-1.2,1
	c-1.9,0.5-2.5-0.6-3.2-0.7s-0.8,0.3-0.9,0.5c-0.1,0.2-3,0.3-3.6,1c-0.7,0.7-0.6,1.6-0.1,2.1c0,0,0.3-1,1.4-1.1
	c1.1,0,2.9,1.4,3.3,2.2c-0.5,0-4.6,0.3-5.1-0.1c-0.3-0.2-0.7-0.8-0.7-1.1c0,0-0.2,1.1,0.3,1.4s0.6,0.3,0.9,0.3
	c0.3,0,4.3-0.1,4.7-0.1c-0.1,0.3,0,1.1-0.9,1.1h-3.3c0,0-0.1,0.8,1.2,0.5c0.3-0.1,1.1-0.3,1.4,0.2C28.5,29.2,29.1,30.2,27.2,30.5z"
	/>
<path class="st2" d="M29.3,59.1c-1.2,0.8-3.1,0.1-3.1,0.1s0,0.5-1.7,1.3c-2.7,1.1-5.5,3.9-1.8,8c0,0-1.5-4.7,0.8-5.8c0,0,2,2,5-2
	C29,60.1,29.3,59.1,29.3,59.1z"/>
<path class="st2" d="M22.7,42.7c-0.1,1.2-0.3,1.3-1.4,1.8c0,0-0.4-0.4-0.6-0.8c-0.7-1.3,0.5-3.3,0.5-3.3c-1.3,1.5-3.1,1-3.1,1
	c0.1-1.3,1.9-2.5,1.9-2.5c-1.6,0.3-2.9-0.6-2.9-0.6c0.5-0.9,2.2-1.9,2.2-1.9c-1.7-0.1-2.8-1.1-2.8-1.1c0.5-0.7,2.4-1.6,2.4-1.6
	c-0.9-0.5-1.8-2.1-1.8-2.1c1.3-0.7,2.7-0.5,2.7-0.5c-2.3-1.7,0.2-6.4,0.2-6.4c-0.4,7,5.1,5.2,4.7,8.8c-0.3,3-3.6,0.8-3.6,0.8
	c-0.6,4.1,1.8,4.5,1.8,4.5s-0.1,1-0.2,2C22.6,42,22.7,42.1,22.7,42.7z"/>
<path class="st2" d="M15.5,52.9c7.5-0.2,8.8-5.9,8.8-5.9c-0.7-1.1-0.8-1.6-0.8-1.6l-0.1-0.3c-0.5,0.5-2.4,1.2-2.4,1.2
	s-1.1-0.9-1.4-1.3c-0.7-1-0.8-1.8-0.8-1.8c-1.3,0-2.4-1.1-2.4-1.1c-0.1-1.2,0.4-2.1,0.4-2.1c-0.9-0.4-1.8-1.3-1.8-1.3
	c0.6-1.3,1-1.7,1-1.7c-1.4-1.1-1.5-1.8-1.5-1.8c0.4-1,1.7-1.9,1.7-1.9c-0.6-0.8-1.1-2.2-1.1-2.2c1-1,2-1.4,2-1.4
	c-0.2-0.6-0.1-1.2-0.1-1.8c0,0-8.6-4.5-9.5-7.4c0,0-0.4,2.6-0.2,4.2c0.1,1.5,2.4,3.9,7.9,7.6c-3.4-0.5-8-2.3-9-4.2
	c0,0,0,2.6,0.6,4.2c0.5,1.3,2.9,2.2,8.3,4.8c-2.7,1.5-7.4-0.2-8.8-1.5c0,0,0.8,2.3,1.6,3.7c0.6,0.9,2.8,2.4,8,1.6
	c-1.9,2.4-5.6,4.2-8.2,3.1c0,0,0.3,2.3,1.8,3c1.1,0.5,3.5,0.8,7.3-2.1c-2.3,5.7-7.9,3.9-7.9,3.9s1.3,2.3,2.8,3
	c1.3,0.7,4,0.1,8.4-4.6C20.1,47.3,19.8,51.5,15.5,52.9z"/>
<path class="st2" d="M25.2,48.6c0,0,1.5,2.1,1.9,3.4c0,0-2.9,2.5-2.4,5.3c0,0-1-2-0.3-3.5c0.1-0.1,0.4-1,0.4-1s-2.5,1.2-4.2,0.3
	c0,0,1.8,0.2,3.8-2.9C25.4,48.5,25.2,48.6,25.2,48.6z"/>
<path class="st2" d="M15.5,57.1c-0.3,0-1.7-0.5-2,0.5c-0.4,1.2,1,1.7,1.7,1c0.8-0.7,2.1-0.7,2.4-0.2c0.1,0.2,0.3,0.7-0.8,1.6
	c-0.3,0.3-2.2,1.4-0.9,2.7c0.5,0.4,1.7,0.3,2-1.5c0.2-1.3,0.6-1.9,1.1-2.1c0.2-0.1,1-0.3,1.4,0c0.1,0.1,0.4,0.3,0.4,0.3
	c0.7,0.5,1.5-0.1,1.4-0.8c-0.2-0.8-0.9-0.6-1.4-0.4c-0.4,0.2-0.8,0-0.8,0c-0.3-0.2-0.4-0.5,0.1-0.8c2.3-1.1,2.7-2.3,2.7-2.3
	c-1.1,0.1-2-0.2-2-0.2s-2,2.7-3.6,2c-0.5-0.2-0.7-1.1-0.7-1.4c0-0.8-0.9-1.2-1.4-0.7c-0.5,0.6,0.1,1.1,0.6,1.3
	c0.3,0.1,0.7,0.5,0.6,0.8C16,57.2,15.7,57.1,15.5,57.1z"/>
<path class="st2" d="M14.7,54.1c0,0-0.4,0.2-0.5,0.6c0,0-0.8-0.6-1.4,0.3C12.9,55,13,53.5,14.7,54.1z"/>
<path class="st2" d="M12.7,57.9c0,0-0.2,0.4,0.2,1c0,0-1,0.4-0.3,1.7C12.6,60.6,11.1,59.2,12.7,57.9z"/>
<path class="st2" d="M14.8,62.4c0,0,0,0.5,0.5,0.9c0,0-0.8,0.7,0.3,1.7C15.6,65,13.7,64.2,14.8,62.4z"/>
<path class="st2" d="M22.8,59.4c0.3,0.1,0.5,0.4,0.4,1.1c0,0,1-1-0.4-1.8l-0.1-0.1c0,0,0.2,0.4-0.1,0.7
	C22.6,59.3,22.7,59.3,22.8,59.4z"/>
<path class="st2" d="M39,59.3c-0.3,0.1-0.5,0.4-0.4,1.1c0,0-1-1,0.4-1.8l0.1-0.1c0,0-0.2,0.4,0.1,0.7C39.2,59.2,39.1,59.2,39,59.3z"
	/>
<path class="st2" d="M31,32.2c0.7-0.2,1.1-0.7,1.1-0.7c0.5,0.6,1.9,1,2.6,1c1.7,4.5,5.4,7.2,2,13.3c-3.6,6.3-6.2,7.2-1.2,11.5
	c0,0-3.2,0.9-3.9-1.9c0,0,0.2,3-0.6,3.8c-0.7-0.8-0.6-3.8-0.6-3.8c-0.7,2.8-3.9,1.9-3.9,1.9c5-4.3,2.4-5.2-1.2-11.5
	c-3.4-6.1,0.3-8.8,2-13.3c0.8-0.1,2.1-0.4,2.7-1C30,31.5,30.3,32,31,32.2z"/>
<path class="st2" d="M32.7,59.1c1.2,0.8,3.2,0.1,3.2,0.1s0,0.5,1.7,1.3c2.7,1.1,5.5,3.9,1.8,8c0,0,1.5-4.7-0.8-5.8c0,0-2,2-5-2
	C33,60.1,32.7,59.1,32.7,59.1z"/>
<path class="st2" d="M39.3,42.7c0.1,1.2,0.3,1.3,1.4,1.8c0,0,0.4-0.4,0.7-0.8c0.7-1.3-0.5-3.3-0.5-3.3c1.3,1.5,3.1,1,3.1,1
	c-0.1-1.3-1.9-2.5-1.9-2.5c1.6,0.3,2.9-0.6,2.9-0.6c-0.5-0.9-2.2-1.9-2.2-1.9c1.7-0.1,2.8-1.1,2.8-1.1c-0.5-0.7-2.4-1.6-2.4-1.6
	c0.9-0.5,1.8-2.1,1.8-2.1c-1.3-0.7-2.7-0.5-2.7-0.5c2.3-1.7-0.2-6.4-0.2-6.4c0.4,7-5.1,5.2-4.6,8.8c0.3,3,3.6,0.8,3.6,0.8
	c0.6,4.1-1.8,4.5-1.8,4.5s0.1,1,0.2,2C39.4,42,39.3,42.1,39.3,42.7z"/>
<path class="st2" d="M46.5,52.9C39,52.7,37.7,47,37.7,47c0.7-1.1,0.8-1.6,0.8-1.6l0.1-0.3c0.5,0.5,2.4,1.2,2.4,1.2s1.1-0.9,1.4-1.3
	c0.7-1,0.8-1.8,0.8-1.8c1.3,0,2.4-1.1,2.4-1.1c0.1-1.1-0.4-2.1-0.4-2.1c0.9-0.4,1.8-1.3,1.8-1.3c-0.6-1.3-1-1.7-1-1.7
	c1.4-1.1,1.5-1.8,1.5-1.8c-0.4-1-1.7-1.9-1.7-1.9c0.6-0.8,1.1-2.2,1.1-2.2c-1-1-2-1.4-2-1.4c0.2-0.6,0.1-1.2,0.1-1.8
	c0,0,8.6-4.5,9.5-7.4c0,0,0.4,2.6,0.2,4.2c-0.1,1.5-2.4,3.9-7.9,7.6c3.4-0.5,8-2.3,9-4.2c0,0,0,2.6-0.6,4.2
	c-0.5,1.3-2.9,2.2-8.3,4.8c2.7,1.5,7.4-0.2,8.8-1.5c0,0-0.8,2.3-1.6,3.7c-0.6,0.9-2.8,2.4-8,1.6c1.9,2.4,5.6,4.2,8.2,3.1
	c0,0-0.3,2.3-1.8,3c-1.1,0.5-3.5,0.8-7.3-2.1c2.3,5.7,7.9,3.9,7.9,3.9s-1.3,2.3-2.8,3c-1.3,0.7-4,0.1-8.4-4.6
	C41.9,47.3,42.2,51.5,46.5,52.9z"/>
<path class="st2" d="M36.8,48.6c0,0-1.5,2.1-1.9,3.4c0,0,2.9,2.5,2.4,5.3c0,0,1-2,0.3-3.5c-0.1-0.1-0.4-1-0.4-1s2.5,1.2,4.2,0.3
	c0,0-1.8,0.2-3.8-2.9C36.6,48.5,36.8,48.6,36.8,48.6z"/>
<path class="st2" d="M46.5,57.1c0.3,0,1.7-0.5,2,0.5c0.4,1.2-1,1.7-1.7,1c-0.8-0.7-2.1-0.7-2.4-0.2c-0.1,0.2-0.3,0.7,0.8,1.6
	c0.3,0.3,2.2,1.4,0.9,2.7c-0.5,0.4-1.7,0.3-2-1.5c-0.2-1.3-0.6-1.9-1.1-2.1c-0.2-0.1-1-0.3-1.4,0c-0.1,0.1-0.4,0.3-0.4,0.3
	c-0.7,0.5-1.5-0.1-1.4-0.8c0.2-0.8,0.9-0.6,1.4-0.4c0.4,0.2,0.8,0,0.8,0c0.3-0.2,0.4-0.5-0.1-0.8c-2.3-1.1-2.7-2.3-2.7-2.3
	c1.1,0.1,2-0.2,2-0.2s2,2.7,3.6,2c0.5-0.2,0.7-1.1,0.7-1.4c0-0.8,0.9-1.2,1.4-0.7c0.5,0.6-0.1,1.1-0.6,1.3c-0.3,0.1-0.7,0.5-0.6,0.8
	C46,57.2,46.3,57.1,46.5,57.1z"/>
<path class="st2" d="M47.3,54.1c0,0,0.4,0.2,0.5,0.6c0,0,0.8-0.6,1.4,0.3C49.1,55,49,53.5,47.3,54.1z"/>
<path class="st2" d="M49.3,57.9c0,0,0.2,0.4-0.2,1c0,0,1,0.4,0.3,1.7C49.4,60.6,50.9,59.2,49.3,57.9z"/>
<path class="st2" d="M47.2,62.4c0,0,0,0.5-0.5,0.9c0,0,0.8,0.7-0.3,1.7C46.4,65,48.3,64.2,47.2,62.4z"/>
<path class="st2" d="M31,61.5c0.2-0.1,0.5-0.2,0.7-0.4c0,0,1.9,4.5,6.2,4.1c0,0-0.3,1-2,1.1c0,0,2.9,1.4,1.2,2.7
	c-1.1,0.9-2-1.6-2-1.6S35,69.7,33,69.7c0,0,3-1.7-0.1-5.8c0.3,2.8-0.7,5.5-2,5.5l0,0c-1.3,0-2.3-2.6-2-5.5c-3.1,4.1-0.1,5.8-0.1,5.8
	c-2,0-2.1-2.3-2.1-2.3s-0.9,2.5-2,1.6c-1.7-1.4,1.2-2.7,1.2-2.7c-1.7-0.1-2-1.1-2-1.1c4.3,0.5,6.2-4.1,6.2-4.1
	C30.5,61.3,30.8,61.4,31,61.5z"/>
<path class="st3" d="M30.6,23.8L30.6,23.8l-0.1-0.6v-0.1h-0.1L28.1,24l0,0l1.2-0.1c0,0.1-0.1,0.2-0.1,0.2c0,0.3,0.2,0.5,0.5,0.5
	s0.5-0.2,0.5-0.5c0-0.1,0-0.2-0.1-0.3h0.4H30.6z"/>
<path class="st3" d="M37,40.1c-0.4-0.8-0.9-1.1-1.3-1.2c0-0.1-0.1-0.2-0.2-0.4c-0.5-0.8-1.4-0.9-2-0.6c-0.2,0.1-0.4,0.2-0.5,0.2
	l0.1-0.2l0,0c0.1-0.1,0.2-0.3,0.3-0.6c0.2-0.6,0.1-1.5-0.6-2c-0.1-0.1-0.2-0.1-0.4-0.2c-0.1-0.4-0.4-0.9-1.2-1.3L31,33.7l-0.2,0.1
	c-0.8,0.4-1.1,0.9-1.2,1.3c-0.1,0-0.2,0.1-0.4,0.2c-0.8,0.5-0.9,1.4-0.6,2c0.1,0.4,0.2,0.5,0.3,0.6l0,0l0.2,0.2
	C29,38,28.8,38,28.6,37.9c-0.6-0.2-1.5-0.1-2,0.6c-0.1,0.1-0.1,0.2-0.2,0.4c-0.4,0.1-0.9,0.4-1.3,1.2L25,40.3l0.1,0.2
	c0.4,0.8,0.9,1.1,1.3,1.2c0,0.1,0.1,0.2,0.2,0.4c0.5,0.8,1.4,0.9,2,0.6c0.4-0.1,0.5-0.2,0.6-0.3l0,0c0,0,0.1-0.1,0.2-0.2v2.1
	l-0.2-0.2l-0.3,0.4l0,0c-0.1,0.1-0.2,0.3-0.3,0.6c-0.2,0.6-0.1,1.5,0.6,2c0.1,0.1,0.2,0.1,0.4,0.2c0.1,0.4,0.4,0.9,1.2,1.3l0.2,0.1
	l0.2-0.1c0.8-0.4,1.1-0.9,1.2-1.3c0.1,0,0.2-0.1,0.4-0.2c0.8-0.5,0.9-1.4,0.6-2c-0.1-0.4-0.2-0.5-0.3-0.6l0,0l-0.3-0.4l-0.2,0.2
	v-2.1l0.2,0.2l0,0c0.1,0.1,0.3,0.2,0.6,0.3c0.6,0.2,1.5,0.1,2-0.6c0.1-0.1,0.1-0.2,0.2-0.4c0.4-0.1,0.9-0.4,1.3-1.2l0.1-0.2L37,40.1
	z"/>
<path class="st2" d="M35.7,40.2c0,0-0.5-0.6-1.1-0.5c0.1-0.2,0.1-0.4-0.1-0.7c-0.3-0.4-0.6-0.3-0.8-0.3h-0.1l0.1,0.1
	c0,0,0.1,0.1,0.1,0.2s0,0.3-0.2,0.5c-0.1,0.1-0.5,0.1-0.6,0.1h-1.5c0-0.4,0-2.2,0-2.2c0-0.1,0-0.4,0.1-0.6c0.2-0.2,0.4-0.3,0.5-0.2
	c0.1,0,0.2,0.1,0.2,0.1l0.1,0.1v-0.1c0.1-0.2,0.1-0.6-0.3-0.8c-0.2-0.2-0.5-0.1-0.7-0.1c0.2-0.6-0.5-1.1-0.5-1.1l0,0l0,0l0,0l0,0
	c0,0-0.6,0.5-0.5,1.1c-0.2-0.1-0.4-0.1-0.7,0.1c-0.4,0.3-0.3,0.6-0.3,0.8v0.1l0.1-0.1c0,0,0.1-0.1,0.2-0.1c0.1,0,0.3,0,0.5,0.2
	c0.1,0.1,0.1,0.4,0.1,0.5l0,0l0,0v2.2c-0.3,0-1.5,0-1.5,0c-0.1,0-0.4,0-0.6-0.1C28,39.2,27.9,39,28,38.9c0-0.1,0.1-0.2,0.1-0.2
	l0.1-0.1h-0.1c-0.2-0.1-0.6-0.1-0.8,0.3c-0.2,0.2-0.1,0.5-0.1,0.7c-0.6-0.2-1.1,0.5-1.1,0.5l0,0l0,0l0,0l0,0c0,0,0.5,0.6,1.1,0.5
	c-0.1,0.2-0.1,0.4,0.1,0.7c0.3,0.4,0.6,0.3,0.8,0.3h0.1l-0.1-0.1c0,0-0.1-0.1-0.1-0.2s0-0.3,0.2-0.5c0.1-0.1,0.4-0.1,0.5-0.1l0,0
	l0,0h1.5v4l0,0l0,0c0,0.1,0,0.4-0.1,0.5c-0.2,0.2-0.4,0.3-0.5,0.2c-0.1,0-0.2-0.1-0.2-0.1l-0.1-0.1v0.1c-0.1,0.2-0.1,0.6,0.3,0.8
	c0.2,0.2,0.5,0.1,0.7,0.1c-0.2,0.6,0.5,1.1,0.5,1.1l0,0l0,0l0,0l0,0c0,0,0.6-0.5,0.5-1.1c0.2,0.1,0.4,0.1,0.7-0.1
	c0.4-0.3,0.3-0.6,0.3-0.8v-0.1l-0.1,0.1c0,0-0.1,0.1-0.2,0.1c-0.1,0-0.3,0-0.5-0.2c-0.1-0.1-0.1-0.5-0.1-0.6c0,0,0-3.4,0-4h1.5l0,0
	l0,0c0.1,0,0.4,0,0.5,0.1c0.2,0.2,0.3,0.4,0.2,0.5c0,0.1-0.1,0.2-0.1,0.2l-0.1,0.1h0.1c0.2,0.1,0.6,0.1,0.8-0.3
	c0.2-0.2,0.1-0.5,0.1-0.7C35.3,41,35.7,40.3,35.7,40.2C35.7,40.3,35.8,40.3,35.7,40.2L35.7,40.2L35.7,40.2L35.7,40.2z"/>
</svg>
